<?xml version="1.0" encoding="utf-8"?>
<!-- Generator: Adobe Illustrator 27.5.0, SVG Export Plug-In . SVG Version: 6.00 Build 0)  -->
<svg version="1.1" id="Layer_1" xmlns="http://www.w3.org/2000/svg" xmlns:xlink="http://www.w3.org/1999/xlink" x="0px" y="0px"
	 viewBox="0 0 1000 250" style="enable-background:new 0 0 1000 250;" xml:space="preserve">
<style type="text/css">
	.st0{fill:#0DCAF0;}
	.st1{fill:#F1AEB5;}
	.st2{fill:#FFFFFF;}
</style>
<g>
	<g>
		<path class="st0" d="M176.33,22.98l-31.05,208.58h-28.12L94.31,96.22h-0.59L71.16,231.56H43.04L11.99,22.98h31.64l14.94,132.41
			h0.59L82.59,22.98h22.85l24.32,135.64h0.59l14.35-135.64H176.33z"/>
		<path class="st0" d="M195.08,231.56V22.98h89.06V51.1h-59.18v61.23h51.56v28.12h-51.56v61.23h59.18v29.88H195.08z"/>
	</g>
	<path class="st1" d="M758.25,80.25h-29.88v-6.74c0-6.83-1.61-12.74-4.83-17.72c-3.22-4.98-8.64-7.47-16.26-7.47
		c-4.1,0-7.42,0.78-9.96,2.34c-2.54,1.57-4.59,3.52-6.15,5.86c-1.57,2.54-2.64,5.42-3.22,8.64c-0.59,3.22-0.88,6.59-0.88,10.11
		c0,4.1,0.15,7.52,0.44,10.25c0.29,2.74,1.03,5.18,2.2,7.32c1.17,2.15,2.88,4.01,5.13,5.57c2.24,1.57,5.32,3.13,9.23,4.69
		l22.85,9.08c6.64,2.54,12.01,5.52,16.11,8.93c4.1,3.42,7.32,7.37,9.67,11.86c2.15,4.69,3.61,10.01,4.39,15.97
		c0.78,5.96,1.17,12.74,1.17,20.36c0,8.79-0.88,16.95-2.64,24.46c-1.76,7.52-4.59,13.92-8.5,19.19c-4.1,5.47-9.48,9.77-16.11,12.89
		c-6.64,3.12-14.75,4.69-24.31,4.69c-7.23,0-13.97-1.27-20.21-3.81c-6.25-2.54-11.62-6.05-16.11-10.55
		c-4.5-4.49-8.06-9.71-10.69-15.67c-2.64-5.96-3.95-12.45-3.95-19.48v-11.13h29.88v9.37c0,5.47,1.61,10.4,4.83,14.79
		c3.22,4.39,8.64,6.59,16.26,6.59c5.08,0,9.03-0.73,11.86-2.2c2.83-1.46,5.03-3.56,6.59-6.3c1.56-2.73,2.49-6.01,2.78-9.81
		c0.29-3.81,0.44-8.06,0.44-12.74c0-5.47-0.2-9.96-0.59-13.48c-0.39-3.52-1.17-6.34-2.34-8.5c-1.37-2.15-3.18-3.9-5.42-5.27
		c-2.25-1.36-5.23-2.83-8.93-4.39l-21.39-8.79c-12.89-5.27-21.53-12.25-25.93-20.95c-4.39-8.69-6.59-19.58-6.59-32.66
		c0-7.81,1.07-15.23,3.22-22.26c2.15-7.03,5.37-13.08,9.67-18.16c4.1-5.08,9.32-9.13,15.67-12.16c6.34-3.03,13.91-4.54,22.7-4.54
		c7.42,0,14.21,1.37,20.36,4.1c6.15,2.74,11.47,6.35,15.97,10.84c8.98,9.37,13.48,20.12,13.48,32.22V80.25z"/>
	<polygon class="st1" points="988.01,144.53 988.01,174.42 898.96,174.42 898.96,18.44 928.84,18.44 928.84,144.53 	"/>
	<g>
		<path class="st2" d="M316.23,230.53V157.4h-8.56v-13.7h8.56v-11.82c0-4.22,0.63-7.79,1.88-10.7c1.26-2.91,2.97-5.34,5.14-7.28
			c2.06-1.94,4.42-3.31,7.11-4.11c2.68-0.8,5.45-1.2,8.31-1.2h8.05v16.44h-7.88c-3.43,0-5.14,2-5.14,5.99v12.67h13.02v13.7H333.7
			v73.14H316.23z"/>
		<path class="st2" d="M350.49,172.81c0-3.54,0.23-6.79,0.68-9.76c0.46-2.97,1.31-5.59,2.57-7.88c2.06-3.77,4.99-6.79,8.82-9.08
			c3.82-2.28,8.48-3.43,13.96-3.43s10.13,1.14,13.96,3.43c3.82,2.29,6.77,5.31,8.82,9.08c1.26,2.29,2.11,4.91,2.57,7.88
			c0.45,2.97,0.68,6.22,0.68,9.76v28.6c0,3.54-0.23,6.79-0.68,9.76c-0.46,2.97-1.31,5.6-2.57,7.88c-2.06,3.77-5,6.79-8.82,9.08
			c-3.83,2.29-8.48,3.43-13.96,3.43s-10.13-1.14-13.96-3.43c-3.83-2.28-6.77-5.31-8.82-9.08c-1.26-2.28-2.11-4.91-2.57-7.88
			c-0.46-2.97-0.68-6.22-0.68-9.76V172.81z M367.96,204.16c0,3.31,0.77,5.8,2.31,7.45c1.54,1.66,3.62,2.48,6.25,2.48
			c2.63,0,4.71-0.83,6.25-2.48c1.54-1.65,2.31-4.14,2.31-7.45v-34.08c0-3.31-0.77-5.79-2.31-7.45c-1.54-1.65-3.63-2.48-6.25-2.48
			c-2.63,0-4.71,0.83-6.25,2.48c-1.54,1.66-2.31,4.14-2.31,7.45V204.16z"/>
		<path class="st2" d="M415.4,230.53V143.7h17.47v9.25c3.54-3.2,7.02-5.71,10.45-7.54c3.43-1.83,7.65-2.74,12.67-2.74v18.5
			c-1.71-0.69-3.48-1.03-5.31-1.03c-1.83,0-3.8,0.32-5.91,0.94c-2.11,0.63-4.03,1.69-5.74,3.17c-1.83,1.48-3.31,3.43-4.45,5.82
			c-1.14,2.4-1.71,5.37-1.71,8.91v51.56H415.4z"/>
	</g>
	<g>
		<path class="st2" d="M484.41,143.7v-26.38h17.47v26.38h10.79v13.7h-10.79v48.13c0,2.06,0.2,3.66,0.6,4.8
			c0.4,1.14,1.05,2,1.97,2.57c0.91,0.57,2.03,0.92,3.34,1.03c1.31,0.11,2.94,0.17,4.88,0.17v16.44h-7.19c-4,0-7.34-0.63-10.02-1.88
			c-2.68-1.26-4.83-2.85-6.42-4.8c-1.6-1.94-2.77-4.14-3.51-6.59c-0.74-2.45-1.11-4.82-1.11-7.11V157.4h-8.74v-13.7H484.41z"/>
		<path class="st2" d="M519.35,230.53V108.58h17.47v43.51h0.34c1.83-2.74,4.03-4.99,6.59-6.77c2.57-1.77,5.85-2.65,9.85-2.65
			c2.17,0,4.34,0.37,6.51,1.11c2.17,0.74,4.11,1.97,5.82,3.68c1.71,1.71,3.08,3.91,4.11,6.59c1.03,2.68,1.54,5.97,1.54,9.85v66.63
			h-17.47v-60.12c0-3.2-0.74-5.71-2.23-7.54c-1.49-1.83-3.6-2.74-6.34-2.74c-3.31,0-5.6,1.03-6.85,3.08
			c-1.26,2.06-1.88,5.03-1.88,8.91v58.41H519.35z"/>
		<path class="st2" d="M636.51,193.71h-34.6v11.82c0,2.74,0.77,4.86,2.31,6.34c1.54,1.48,3.62,2.23,6.25,2.23
			c3.31,0,5.51-0.97,6.59-2.91c1.08-1.94,1.74-3.88,1.97-5.82h17.47c0,7.65-2.34,13.82-7.02,18.5c-2.29,2.4-5.03,4.28-8.22,5.65
			c-3.2,1.37-6.8,2.06-10.79,2.06c-5.48,0-10.13-1.14-13.96-3.43c-3.83-2.28-6.77-5.31-8.82-9.08c-1.26-2.28-2.11-4.91-2.57-7.88
			c-0.46-2.97-0.68-6.22-0.68-9.76v-28.6c0-3.54,0.23-6.79,0.68-9.76c0.46-2.97,1.31-5.59,2.57-7.88c2.06-3.77,4.99-6.79,8.82-9.08
			c3.82-2.28,8.48-3.43,13.96-3.43c4,0,7.62,0.69,10.88,2.06c3.25,1.37,6.02,3.25,8.31,5.65c4.57,5.14,6.85,11.59,6.85,19.36V193.71
			z M601.91,180.01h17.13v-9.93c0-3.31-0.77-5.79-2.31-7.45c-1.54-1.65-3.63-2.48-6.25-2.48c-2.63,0-4.71,0.83-6.25,2.48
			c-1.54,1.66-2.31,4.14-2.31,7.45V180.01z"/>
	</g>
	<g>
		<path class="st2" d="M344.19,79.97v4.87c0,2.43-0.46,4.74-1.38,6.92c-0.92,2.18-2.2,4.11-3.82,5.81c-1.62,1.7-3.52,3.04-5.7,4.04
			c-2.18,1-4.52,1.49-7.03,1.49c-2.14,0-4.32-0.3-6.53-0.89c-2.21-0.59-4.21-1.62-5.98-3.1c-1.77-1.48-3.23-3.38-4.37-5.7
			c-1.14-2.32-1.72-5.29-1.72-8.91V41.13c0-2.58,0.44-4.98,1.33-7.19c0.89-2.21,2.14-4.13,3.76-5.75c1.62-1.62,3.56-2.89,5.81-3.82
			c2.25-0.92,4.74-1.38,7.47-1.38c5.31,0,9.63,1.73,12.95,5.2c1.62,1.7,2.89,3.71,3.82,6.03c0.92,2.32,1.38,4.85,1.38,7.58v4.43
			H332.9v-3.76c0-2.21-0.63-4.13-1.88-5.75c-1.26-1.62-2.95-2.43-5.09-2.43c-2.8,0-4.67,0.87-5.59,2.6
			c-0.92,1.73-1.38,3.93-1.38,6.58v40.28c0,2.29,0.5,4.21,1.49,5.75c1,1.55,2.78,2.32,5.37,2.32c0.74,0,1.53-0.13,2.38-0.39
			c0.85-0.26,1.64-0.68,2.38-1.27c0.66-0.59,1.22-1.4,1.66-2.43c0.44-1.03,0.66-2.32,0.66-3.87v-3.87H344.19z"/>
		<path class="st2" d="M374.07,102.44v-5.75h-0.22c-1.48,2.07-2.97,3.65-4.48,4.76c-1.51,1.11-3.63,1.66-6.36,1.66
			c-1.33,0-2.67-0.2-4.04-0.61c-1.37-0.4-2.67-1.16-3.93-2.27c-1.26-1.03-2.27-2.53-3.04-4.48c-0.77-1.95-1.16-4.48-1.16-7.58
			c0-3.17,0.26-5.96,0.77-8.36c0.52-2.4,1.48-4.41,2.88-6.03c1.33-1.55,3.13-2.71,5.42-3.49c2.29-0.77,5.2-1.16,8.74-1.16
			c0.37,0,0.77,0,1.22,0c0.44,0,0.85,0.04,1.22,0.11c0.37,0.07,0.81,0.11,1.33,0.11c0.52,0,1.07,0.04,1.66,0.11V63.6
			c0-1.92-0.41-3.5-1.22-4.76c-0.81-1.25-2.29-1.88-4.43-1.88c-1.48,0-2.82,0.48-4.04,1.44c-1.22,0.96-2.01,2.36-2.38,4.21h-10.96
			c0.29-5.02,1.99-9.07,5.09-12.17c1.47-1.47,3.25-2.64,5.31-3.49c2.06-0.85,4.39-1.27,6.97-1.27c2.36,0,4.57,0.37,6.64,1.11
			c2.06,0.74,3.87,1.84,5.42,3.32c1.48,1.48,2.66,3.32,3.54,5.53c0.89,2.21,1.33,4.8,1.33,7.75v39.06H374.07z M374.07,78.31
			c-1.26-0.22-2.29-0.33-3.1-0.33c-2.43,0-4.52,0.57-6.25,1.72c-1.73,1.14-2.6,3.23-2.6,6.25c0,2.14,0.52,3.87,1.55,5.2
			c1.03,1.33,2.47,1.99,4.32,1.99c1.92,0,3.41-0.63,4.48-1.88c1.07-1.25,1.6-3.02,1.6-5.31V78.31z"/>
		<path class="st2" d="M393.65,102.44V46.33h11.29v5.42h0.22c1.18-1.77,2.6-3.23,4.26-4.37c1.66-1.14,3.78-1.72,6.36-1.72
			c1.4,0,2.8,0.24,4.21,0.72c1.4,0.48,2.66,1.27,3.76,2.38c1.11,1.11,1.99,2.53,2.66,4.26c0.66,1.73,1,3.86,1,6.36v43.05h-11.29
			V63.6c0-2.06-0.48-3.69-1.44-4.87c-0.96-1.18-2.32-1.77-4.09-1.77c-2.14,0-3.62,0.66-4.43,1.99c-0.81,1.33-1.22,3.25-1.22,5.75
			v37.74H393.65z"/>
		<path class="st2" d="M436.7,43.12V23.65h11.29v11.29L436.7,43.12z"/>
		<path class="st2" d="M457.28,46.33V29.29h11.29v17.04h6.97v8.85h-6.97v31.1c0,1.33,0.13,2.36,0.39,3.1
			c0.26,0.74,0.68,1.29,1.27,1.66c0.59,0.37,1.31,0.59,2.16,0.66c0.85,0.07,1.9,0.11,3.15,0.11v10.62h-4.65
			c-2.58,0-4.74-0.4-6.47-1.22c-1.73-0.81-3.12-1.84-4.15-3.1c-1.03-1.25-1.79-2.67-2.27-4.26c-0.48-1.59-0.72-3.12-0.72-4.59V55.18
			h-5.64v-8.85H457.28z"/>
	</g>
	<g>
		<path class="st2" d="M551.63,22.98l-11.73,78.79h-10.62l-8.63-51.13h-0.22l-8.52,51.13h-10.62l-11.73-78.79h11.95L507.14,73h0.22
			l8.85-50.02h8.63l9.19,51.24h0.22l5.42-51.24H551.63z"/>
		<path class="st2" d="M577.41,101.78v-5.75h-0.22c-1.48,2.07-2.97,3.65-4.48,4.76c-1.51,1.11-3.63,1.66-6.36,1.66
			c-1.33,0-2.68-0.2-4.04-0.61c-1.37-0.4-2.67-1.16-3.93-2.27c-1.26-1.03-2.27-2.53-3.04-4.48c-0.77-1.95-1.16-4.48-1.16-7.58
			c0-3.17,0.26-5.96,0.77-8.36c0.52-2.4,1.47-4.41,2.88-6.03c1.33-1.55,3.14-2.71,5.42-3.49c2.29-0.77,5.2-1.16,8.74-1.16
			c0.37,0,0.77,0,1.22,0s0.85,0.04,1.22,0.11c0.37,0.07,0.81,0.11,1.33,0.11c0.52,0,1.07,0.04,1.66,0.11v-5.87
			c0-1.92-0.41-3.5-1.22-4.76c-0.81-1.25-2.29-1.88-4.43-1.88c-1.48,0-2.82,0.48-4.04,1.44c-1.22,0.96-2.01,2.36-2.38,4.21H554.4
			c0.29-5.02,1.99-9.07,5.09-12.17c1.48-1.47,3.25-2.64,5.31-3.49c2.06-0.85,4.39-1.27,6.97-1.27c2.36,0,4.57,0.37,6.64,1.11
			c2.06,0.74,3.87,1.84,5.42,3.32c1.48,1.48,2.66,3.32,3.54,5.53c0.89,2.21,1.33,4.8,1.33,7.75v39.06H577.41z M577.41,77.65
			c-1.26-0.22-2.29-0.33-3.1-0.33c-2.43,0-4.52,0.57-6.25,1.72c-1.73,1.14-2.6,3.23-2.6,6.25c0,2.14,0.52,3.87,1.55,5.2
			c1.03,1.33,2.47,1.99,4.32,1.99c1.92,0,3.41-0.63,4.48-1.88c1.07-1.25,1.6-3.02,1.6-5.31V77.65z"/>
		<path class="st2" d="M597,34.27V22.98h11.29v11.29H597z M597,101.78V45.67h11.29v56.11H597z"/>
		<path class="st2" d="M617.58,45.67V28.63h11.29v17.04h6.97v8.85h-6.97v31.1c0,1.33,0.13,2.36,0.39,3.1
			c0.26,0.74,0.68,1.29,1.27,1.66c0.59,0.37,1.31,0.59,2.16,0.66c0.85,0.07,1.9,0.11,3.15,0.11v10.62h-4.65
			c-2.58,0-4.74-0.4-6.47-1.22c-1.73-0.81-3.12-1.84-4.15-3.1c-1.03-1.25-1.79-2.67-2.27-4.26c-0.48-1.59-0.72-3.12-0.72-4.59V54.52
			h-5.64v-8.85H617.58z"/>
	</g>
	<path class="st1" d="M917.87,189.62c-1.98,3.94-5.19,7.17-9.13,9.16c-0.76,0.39-1.56,0.73-2.37,1.02
		c-0.49,0.18-0.99,0.33-1.51,0.47c-1.01,0.28-2.05,0.48-3.12,0.59c-0.74,0.08-1.49,0.13-2.26,0.13c-5.12,0-9.81-1.88-13.41-4.99
		c-0.49-0.43-0.96-0.87-1.41-1.34c-0.67-0.69-1.28-1.42-1.84-2.2c-2.45-3.38-3.89-7.53-3.89-12.01V68.53c0-3.5-0.36-6.92-1.05-10.21
		c-1.91-9.26-6.39-17.6-12.66-24.21c-0.35-0.37-0.71-0.74-1.07-1.1c-0.19-0.19-0.38-0.38-0.58-0.57c-0.56-0.54-1.14-1.07-1.73-1.59
		h0c-8.81-7.73-20.36-12.41-33.01-12.41c-6.79,0-13.26,1.35-19.17,3.8c-1.45,0.6-2.87,1.27-4.25,2
		c-14.26,7.56-24.44,21.8-26.35,38.56c-0.18,1.54-0.29,3.11-0.32,4.69c0,0.35-0.01,0.7-0.01,1.05v111.91c0,1.65,0.08,3.27,0.23,4.87
		c0.15,1.57,0.38,3.12,0.68,4.65c3.1,16.16,13.99,29.56,28.59,36.15c1.42,0.64,2.88,1.22,4.37,1.73c5.09,1.74,10.55,2.69,16.23,2.69
		c9.09,0,17.62-2.42,24.97-6.65c-1.85-1.79-3.57-3.71-5.13-5.76c-2.27,1.2-4.65,2.2-7.14,2.98c0,0,0,0,0,0
		c-0.35,0.11-0.7,0.21-1.06,0.31c-0.23,0.07-0.45,0.13-0.68,0.19c-0.19,0.05-0.38,0.1-0.58,0.15c-0.83,0.21-1.68,0.39-2.53,0.55
		c-0.15,0.03-0.31,0.06-0.46,0.08c-0.23,0.04-0.45,0.08-0.68,0.11c-0.36,0.06-0.71,0.11-1.06,0.15c-0.27,0.04-0.53,0.07-0.8,0.1
		c-0.24,0.03-0.49,0.06-0.74,0.08c-0.58,0.06-1.17,0.1-1.75,0.13c-0.18,0.01-0.37,0.02-0.55,0.02c-0.1,0.01-0.21,0.01-0.32,0.01
		c-0.2,0.01-0.4,0.01-0.6,0.02c-0.29,0-0.58,0.01-0.87,0.01c-0.44,0-0.87,0-1.3-0.02c-0.25,0-0.5-0.01-0.75-0.03
		c-0.09,0-0.19,0-0.29-0.01c-0.27-0.01-0.54-0.03-0.82-0.05c-0.07,0-0.14-0.01-0.2-0.02c-0.33-0.02-0.66-0.05-0.99-0.08
		c-0.31-0.03-0.61-0.07-0.91-0.1c-0.15-0.02-0.29-0.04-0.43-0.06c-0.25-0.03-0.5-0.07-0.75-0.11c-0.05,0-0.09-0.01-0.14-0.02
		c-0.23-0.04-0.47-0.08-0.7-0.12c-0.18-0.03-0.37-0.06-0.55-0.1c-0.89-0.16-1.77-0.36-2.64-0.58c-0.27-0.07-0.54-0.14-0.8-0.21
		c-0.02,0-0.04-0.01-0.06-0.02c-0.19-0.05-0.38-0.1-0.57-0.16c-0.17-0.05-0.35-0.1-0.52-0.15c-0.45-0.14-0.91-0.28-1.35-0.44
		l4.77-13.74c0.18,0.06,0.35,0.12,0.53,0.17s0.36,0.11,0.54,0.16c0.16,0.05,0.32,0.1,0.49,0.14c0.15,0.04,0.3,0.08,0.44,0.12
		c0.15,0.04,0.29,0.08,0.43,0.11c0.09,0.02,0.18,0.05,0.28,0.07c0.22,0.05,0.43,0.1,0.65,0.14c0.23,0.05,0.46,0.09,0.69,0.13
		c0.21,0.04,0.43,0.08,0.64,0.11c0.03,0,0.06,0.01,0.08,0.01c0.16,0.02,0.33,0.05,0.49,0.07c0.46,0.06,0.93,0.11,1.41,0.15
		c0.19,0.02,0.38,0.03,0.58,0.04c0.12,0.01,0.24,0.01,0.36,0.02c0.23,0.01,0.45,0.02,0.68,0.03c0.24,0,0.48,0.01,0.72,0.01
		c0.5,0,0.99-0.01,1.49-0.04c0.42-0.02,0.84-0.05,1.27-0.09c0.99-0.1,1.98-0.25,2.95-0.45c2.5-0.52,4.88-1.37,7.09-2.5
		c-0.9-2.38-1.62-4.85-2.14-7.4c-3.11,1.89-6.75,2.98-10.65,2.98c-2.28,0-4.49-0.38-6.54-1.06c-1.51-0.51-2.94-1.19-4.26-2.01
		c-4.9-3.04-8.43-8.08-9.44-13.97c-0.2-1.14-0.3-2.31-0.3-3.5V68.53c0-0.35,0.01-0.7,0.03-1.05c0.08-1.62,0.35-3.19,0.79-4.69
		c1.53-5.28,5.14-9.68,9.86-12.28c1.36-0.75,2.83-1.36,4.36-1.78h0c1.75-0.48,3.6-0.75,5.5-0.75c4.48,0,8.63,1.44,12,3.87
		c0.92,0.67,1.79,1.41,2.59,2.22c0.3,0.3,0.6,0.62,0.88,0.95c3.17,3.62,5.08,8.34,5.08,13.51v111.91c0,5.55,0.9,10.89,2.57,15.87
		c1.3,3.88,3.05,7.56,5.22,10.95c0.65,1.02,1.33,2.02,2.05,2.99c0.22,0.29,0.44,0.58,0.66,0.86c1.32,1.71,2.75,3.33,4.28,4.85
		c1.77,1.76,3.68,3.4,5.7,4.87c8.3,6.09,18.54,9.69,29.62,9.69c1.58,0,3.15-0.08,4.69-0.22c1.58-0.15,3.13-0.37,4.66-0.66
		c4.53-0.85,8.85-2.32,12.86-4.31c4.92-2.43,9.37-5.65,13.21-9.48c1.54-1.54,2.97-3.18,4.3-4.9L917.87,189.62z M845.85,222.04
		c0.36-0.15,0.73-0.3,1.09-0.46l0.93-0.76c0.29,0.35,0.58,0.71,0.88,1.05l1.22,1.43l-1.72,0.76c-0.44,0.2-0.89,0.39-1.34,0.57
		l-0.45-1.11c-0.26-0.31-0.52-0.62-0.78-0.94l0.3-0.24L845.85,222.04z M841.54,223.55l0.79,2.7c-0.92,0.27-1.85,0.51-2.78,0.73
		l-0.63-2.74C839.79,224.03,840.68,223.8,841.54,223.55z M834.47,225.02l0.35,2.79c-0.95,0.12-1.91,0.21-2.87,0.27l-0.18-2.81
		C832.67,225.22,833.58,225.13,834.47,225.02z M824.56,225.17c0.89,0.08,1.8,0.14,2.71,0.17l-0.1,2.81
		c-0.96-0.03-1.92-0.1-2.87-0.19L824.56,225.17z M817.45,223.92c0.87,0.23,1.76,0.43,2.64,0.61l-0.55,2.76
		c-0.94-0.19-1.88-0.4-2.8-0.64L817.45,223.92z M836.51,202.01l1.39-0.5l0.51,1.68c0.05,0.17,0.1,0.33,0.16,0.5
		c0.06,0.2,0.12,0.37,0.17,0.54l-1.29,0.43c-0.32,0.11-0.65,0.22-0.97,0.32l-0.41,0.14c0,0,0-0.01,0-0.01
		c-0.01,0-0.02,0.01-0.03,0.01l-0.4-1.38h0l-0.39-1.33C835.68,202.29,836.1,202.16,836.51,202.01z M828.26,203.32
		c0.89,0.02,1.78-0.01,2.66-0.09l0.25,2.8c-0.77,0.07-1.55,0.1-2.32,0.1c-0.22,0-0.44,0-0.66-0.01L828.26,203.32z M821.32,202.06
		l0.24,0.08c0.75,0.25,1.53,0.47,2.31,0.64l-0.61,2.75c-0.88-0.19-1.75-0.44-2.6-0.72l-0.27-0.09L821.32,202.06z M897.68,203.26
		c0.87,0.07,1.77,0.09,2.63,0.06l0.1,2.81c-0.3,0.01-0.61,0.02-0.92,0.02c-0.68,0-1.36-0.03-2.04-0.08L897.68,203.26z
		 M890.88,201.65c0.81,0.33,1.65,0.61,2.49,0.85l-0.75,2.71c-0.95-0.26-1.89-0.58-2.8-0.95L890.88,201.65z M884.88,198.05
		c0.67,0.56,1.39,1.08,2.12,1.56l-1.54,2.36c-0.82-0.54-1.62-1.13-2.38-1.75L884.88,198.05z M880.24,192.82
		c0.22,0.33,0.45,0.67,0.68,1c0.27,0.38,0.56,0.76,0.87,1.13l-2.17,1.79c-0.34-0.42-0.67-0.85-0.98-1.27
		c-0.26-0.36-0.52-0.74-0.76-1.11L880.24,192.82z M878.23,188.93l-2.61,1.05c-0.37-0.91-0.68-1.85-0.94-2.8l2.72-0.74
		C877.62,187.28,877.9,188.12,878.23,188.93z M873.85,182.32c-0.04-0.62-0.07-1.25-0.07-1.88v-1.01h2.81v1.01
		c0,0.56,0.02,1.12,0.06,1.68L873.85,182.32z M876.6,82.57v2.79h-2.81v-2.79H876.6z M873.78,77.91v-2.79h2.81v2.79H873.78z
		 M876.6,90.02v2.79h-2.81v-2.79H876.6z M876.6,97.47v2.79h-2.81v-2.79H876.6z M876.6,104.92v2.79h-2.81v-2.79H876.6z M876.6,112.37
		v2.79h-2.81v-2.79H876.6z M876.6,119.82v2.79h-2.81v-2.79H876.6z M876.6,127.27v2.79h-2.81v-2.79H876.6z M876.6,134.73v2.79h-2.81
		v-2.79H876.6z M876.6,142.18v2.79h-2.81v-2.79H876.6z M876.6,149.63v2.79h-2.81v-2.79H876.6z M876.6,157.08v2.79h-2.81v-2.79H876.6
		z M876.6,164.53v2.79h-2.81v-2.79H876.6z M876.6,171.98v2.79h-2.81v-2.79H876.6z M876.6,68.53v1.93h-2.81v-1.93
		c0-0.28,0-0.56-0.01-0.84l2.81-0.05C876.59,67.94,876.6,68.24,876.6,68.53z M876.26,62.86l-2.79,0.33c-0.11-0.89-0.24-1.8-0.4-2.68
		l2.77-0.5C876.01,60.95,876.15,61.91,876.26,62.86z M874.75,55.34l-2.71,0.78c-0.25-0.86-0.52-1.73-0.82-2.58l2.65-0.94
		C874.2,53.5,874.49,54.42,874.75,55.34z M870.74,45.6c0.46,0.84,0.9,1.7,1.31,2.56l-2.54,1.2c-0.38-0.81-0.8-1.62-1.23-2.41
		L870.74,45.6z M866.53,39.19c0.59,0.75,1.16,1.54,1.7,2.32l-2.32,1.59c-0.51-0.74-1.05-1.48-1.6-2.19L866.53,39.19z M870.09,57.9
		c0.09,0.34,0.18,0.68,0.25,1.03c0.07,0.3,0.14,0.61,0.2,0.91c0.08,0.36,0.15,0.71,0.21,1.07c0.04,0.21,0.08,0.42,0.11,0.64
		c0.04,0.21,0.07,0.42,0.1,0.62c0.1,0.66,0.18,1.32,0.25,1.98c0.15,1.45,0.23,2.91,0.23,4.38v7.25H856.9v-7.25
		c0-0.3,0-0.61-0.02-0.91c0-0.18-0.01-0.36-0.02-0.53c-0.01-0.22-0.02-0.43-0.04-0.64c0-0.07-0.01-0.14-0.01-0.21
		c-0.02-0.19-0.04-0.38-0.06-0.58c-0.03-0.27-0.06-0.53-0.09-0.79c-0.02-0.18-0.05-0.36-0.08-0.54c0-0.05-0.01-0.09-0.02-0.13
		c-0.1-0.66-0.23-1.32-0.38-1.97c-0.01-0.05-0.02-0.09-0.03-0.14c-0.07-0.3-0.15-0.6-0.23-0.9c-0.03-0.1-0.06-0.21-0.08-0.3
		c-0.02-0.08-0.05-0.16-0.07-0.25c-0.02-0.07-0.04-0.15-0.07-0.22c-0.03-0.1-0.06-0.2-0.09-0.3c-0.06-0.18-0.11-0.35-0.17-0.53
		c-0.06-0.17-0.12-0.34-0.18-0.5c-0.03-0.08-0.06-0.16-0.08-0.24c-0.04-0.09-0.07-0.18-0.11-0.28c-0.07-0.17-0.13-0.34-0.2-0.52
		c-0.03-0.08-0.06-0.16-0.1-0.24c-0.05-0.11-0.09-0.23-0.14-0.34c-0.05-0.11-0.1-0.23-0.15-0.33c0-0.02-0.01-0.04-0.02-0.06
		c-0.01-0.04-0.03-0.08-0.05-0.11c-0.01-0.03-0.03-0.07-0.04-0.1c-0.03-0.07-0.06-0.14-0.09-0.21c-0.02-0.04-0.04-0.07-0.05-0.11
		c-0.04-0.08-0.08-0.15-0.11-0.23c0-0.02-0.01-0.03-0.02-0.05c-0.08-0.17-0.16-0.34-0.25-0.5c-0.01-0.03-0.03-0.06-0.04-0.08
		c-0.07-0.14-0.14-0.27-0.21-0.4l-0.1-0.18c-0.1-0.2-0.21-0.39-0.32-0.58c-0.09-0.15-0.17-0.3-0.26-0.44
		c-0.06-0.09-0.11-0.18-0.16-0.27c-0.03-0.05-0.07-0.11-0.1-0.16c-0.01-0.02-0.02-0.03-0.03-0.05c-0.01-0.02-0.03-0.05-0.04-0.07
		c-0.01-0.02-0.03-0.05-0.04-0.07c-0.12-0.19-0.24-0.37-0.37-0.55c-0.11-0.17-0.22-0.33-0.34-0.49c-0.06-0.08-0.12-0.17-0.18-0.25
		c-0.04-0.06-0.09-0.12-0.13-0.18c-0.13-0.18-0.27-0.37-0.41-0.54c-0.18-0.24-0.37-0.47-0.56-0.71c-0.14-0.17-0.29-0.35-0.44-0.52
		c-0.05-0.06-0.09-0.11-0.15-0.17c-0.03-0.03-0.05-0.06-0.08-0.09c-0.03-0.03-0.05-0.06-0.08-0.08c-0.02-0.03-0.05-0.06-0.08-0.09
		c-0.01-0.01-0.02-0.02-0.03-0.03c-0.02-0.02-0.04-0.05-0.06-0.07l10.28-10.28l0.02-0.02C864.85,44.65,868.34,50.99,870.09,57.9z
		 M856.9,120.68V80.47h14.54v40.21H856.9z M871.44,125.37v37.55H856.9v-37.55H871.44z M851.74,165.97v-2.82h2.81v2.82H851.74z
		 M854.55,170.67v2.82h-2.81v-2.82H854.55z M851.74,158.45v-2.82h2.81v2.82H851.74z M851.74,150.94v-2.82h2.81v2.82H851.74z
		 M851.74,143.42v-2.82h2.81v2.82H851.74z M851.74,135.9v-2.82h2.81v2.82H851.74z M851.74,128.39v-2.82h2.81v2.82H851.74z
		 M851.74,120.87v-2.82h2.81v2.82H851.74z M851.74,113.35v-2.82h2.81v2.82H851.74z M851.74,105.84v-2.82h2.81v2.82H851.74z
		 M851.74,98.32V95.5h2.81v2.82H851.74z M851.74,90.8v-2.82h2.81v2.82H851.74z M851.74,83.29v-2.82h2.81v2.82H851.74z M851.74,75.77
		v-2.82h2.81v2.82H851.74z M861.34,33.54c0.21,0.2,0.42,0.39,0.61,0.57c0.19,0.19,0.38,0.37,0.58,0.57
		c0.29,0.28,0.58,0.58,0.86,0.88l-2.03,1.94c-0.26-0.28-0.54-0.55-0.81-0.83c-0.2-0.2-0.38-0.38-0.55-0.55
		c-0.17-0.16-0.36-0.34-0.56-0.52L861.34,33.54z M855.33,28.79c0.8,0.53,1.58,1.09,2.34,1.67l-1.7,2.24
		c-0.72-0.54-1.46-1.07-2.21-1.57L855.33,28.79z M848.63,25.06c0.87,0.4,1.74,0.82,2.58,1.27l-1.32,2.49
		c-0.79-0.42-1.61-0.82-2.43-1.2L848.63,25.06z M841.41,22.45c0.92,0.25,1.85,0.53,2.75,0.84l-0.9,2.66
		c-0.85-0.29-1.72-0.55-2.59-0.79L841.41,22.45z M833.88,21.04c0.95,0.1,1.91,0.23,2.85,0.39l-0.46,2.78
		c-0.88-0.15-1.79-0.27-2.68-0.36L833.88,21.04z M828.85,20.78l0.24,0l-0.02,2.81l-0.23,0c-0.83,0-1.67,0.02-2.48,0.07l-0.15-2.81
		C827.08,20.81,827.97,20.78,828.85,20.78z M821.44,21.35l0.43,2.78c-0.89,0.14-1.78,0.31-2.66,0.5l-0.6-2.75
		C819.55,21.68,820.5,21.5,821.44,21.35z M813.98,23.14l0.88,2.67c-0.85,0.28-1.71,0.59-2.55,0.92l-1.04-2.62
		C812.17,23.77,813.08,23.44,813.98,23.14z M806.54,26.31c0.12-0.06,0.25-0.13,0.37-0.2l1.3,2.5c-0.12,0.06-0.23,0.12-0.35,0.18
		c-0.68,0.36-1.36,0.74-2.02,1.14l-1.44-2.42C805.1,27.09,805.82,26.69,806.54,26.31z M800.41,30.17l1.68,2.26
		c-0.72,0.54-1.44,1.1-2.13,1.68l-1.81-2.16C798.88,31.34,799.64,30.74,800.41,30.17z M794.63,35.22l2.02,1.96
		c-0.63,0.64-1.24,1.32-1.83,2l-2.13-1.84C793.31,36.62,793.96,35.9,794.63,35.22z M789.74,41.12l2.3,1.62
		c-0.52,0.74-1.02,1.5-1.49,2.26l-2.4-1.47C788.66,42.71,789.19,41.9,789.74,41.12z M785.85,47.73l2.53,1.23
		c-0.39,0.81-0.76,1.64-1.11,2.47l-2.6-1.07C785.04,49.48,785.44,48.59,785.85,47.73z M800.8,149.99v30.45c0,0.11,0,0.22,0,0.33
		l-14.41,3c-0.04-0.45-0.07-0.9-0.08-1.35c-0.01-0.22-0.02-0.45-0.02-0.67c-0.01-0.13-0.01-0.26-0.01-0.38
		c-0.01-0.31-0.01-0.62-0.01-0.93v-30.45H800.8z M786.26,145.3v-35.57h14.54v35.57H786.26z M800.8,68.53v36.51h-14.54V68.53
		c0-0.35,0-0.7,0.01-1.05h14.55C800.8,67.83,800.8,68.18,800.8,68.53z M783.08,54.88l2.7,0.8c-0.26,0.86-0.49,1.74-0.69,2.62
		l-2.74-0.64C782.56,56.73,782.81,55.8,783.08,54.88z M781.41,63.06c0.03-0.22,0.05-0.45,0.08-0.68l2.79,0.36
		c-0.03,0.21-0.05,0.43-0.08,0.64c-0.08,0.68-0.14,1.37-0.19,2.06l-2.81-0.19C781.26,64.51,781.33,63.78,781.41,63.06z M781.1,70
		h2.81v2.79h-2.81V70z M781.1,77.45h2.81v2.79h-2.81V77.45z M781.1,84.9h2.81v2.79h-2.81V84.9z M781.1,92.35h2.81v2.79h-2.81V92.35z
		 M781.1,99.8h2.81v2.79h-2.81V99.8z M781.1,107.25h2.81v2.79h-2.81V107.25z M781.1,114.7h2.81v2.79h-2.81V114.7z M781.1,122.15
		h2.81v2.79h-2.81V122.15z M781.1,129.6h2.81v2.79h-2.81V129.6z M781.1,137.05h2.81v2.79h-2.81V137.05z M781.1,144.5h2.81v2.79
		h-2.81V144.5z M781.1,151.95h2.81v2.79h-2.81V151.95z M781.1,159.41h2.81v2.79h-2.81V159.41z M781.1,166.86h2.81v2.79h-2.81V166.86
		z M781.1,174.31h2.81v2.79h-2.81V174.31z M781.12,181.8l2.81-0.08c0.03,0.9,0.08,1.81,0.16,2.71l-2.8,0.25
		C781.21,183.72,781.15,182.75,781.12,181.8z M781.97,189.5l-0.02-0.08l2.76-0.53l0.01,0.05c0.17,0.88,0.36,1.75,0.58,2.6
		l-2.73,0.69C782.34,191.33,782.14,190.41,781.97,189.5z M783.99,196.82l2.64-0.96c0.31,0.84,0.64,1.69,1,2.52l-2.58,1.12
		C784.67,198.61,784.31,197.71,783.99,196.82z M788.67,206.25c-0.52-0.81-1.02-1.64-1.48-2.47l2.45-1.38
		c0.44,0.78,0.91,1.56,1.4,2.32L788.67,206.25z M793.32,212.35c-0.64-0.71-1.26-1.45-1.86-2.2l2.2-1.75c0.56,0.7,1.15,1.4,1.75,2.07
		L793.32,212.35z M798.88,217.62c-0.74-0.6-1.48-1.23-2.18-1.87l1.89-2.08c0.67,0.61,1.36,1.2,2.06,1.76L798.88,217.62z
		 M805.22,221.94c-0.83-0.47-1.65-0.98-2.46-1.5l1.54-2.36c0.75,0.49,1.53,0.97,2.31,1.41L805.22,221.94z M812.16,225.19
		c-0.9-0.34-1.79-0.7-2.66-1.09l1.14-2.57c0.82,0.36,1.66,0.71,2.51,1.03L812.16,225.19z M815.1,198.73c0.55,0.41,1.12,0.8,1.7,1.16
		c0.17,0.11,0.34,0.21,0.51,0.31l-1.42,2.43c-0.19-0.11-0.39-0.23-0.57-0.35c-0.65-0.4-1.29-0.84-1.91-1.31L815.1,198.73z
		 M813.37,203.82c0.27,0.18,0.54,0.35,0.82,0.52c0.18,0.11,0.37,0.23,0.56,0.34c0.26,0.15,0.53,0.3,0.8,0.45l-4.81,13.85
		c-0.74-0.34-1.46-0.71-2.17-1.1c-0.07-0.04-0.15-0.08-0.22-0.12c-0.32-0.17-0.63-0.35-0.94-0.53c-0.36-0.21-0.72-0.42-1.07-0.65
		c-0.33-0.2-0.65-0.41-0.97-0.62c-0.04-0.02-0.07-0.05-0.11-0.07c-0.33-0.22-0.67-0.45-0.99-0.68c-0.02-0.01-0.04-0.02-0.06-0.04
		c-0.32-0.23-0.64-0.46-0.96-0.7c-0.3-0.23-0.6-0.46-0.9-0.69c-0.08-0.06-0.15-0.13-0.23-0.19c-0.21-0.16-0.41-0.33-0.61-0.5
		c-0.14-0.11-0.28-0.23-0.41-0.35c-0.81-0.7-1.59-1.43-2.35-2.19c-0.24-0.23-0.47-0.48-0.7-0.72c-0.01,0-0.01-0.01-0.01-0.01
		c-0.21-0.21-0.41-0.43-0.6-0.65c-0.32-0.34-0.63-0.69-0.92-1.04c-0.4-0.46-0.78-0.92-1.15-1.4c-0.22-0.27-0.42-0.54-0.62-0.81
		c-0.19-0.25-0.38-0.51-0.56-0.76c-0.44-0.61-0.86-1.23-1.26-1.87c-0.15-0.24-0.31-0.49-0.46-0.74c-0.22-0.36-0.44-0.73-0.65-1.1
		c-0.14-0.23-0.27-0.47-0.4-0.71c-0.16-0.3-0.32-0.61-0.48-0.91c-0.16-0.31-0.32-0.63-0.47-0.95c-0.12-0.24-0.23-0.49-0.35-0.74
		c-0.17-0.37-0.33-0.74-0.49-1.12c-0.09-0.21-0.17-0.41-0.26-0.62c-0.05-0.13-0.1-0.26-0.15-0.39c-0.08-0.21-0.16-0.41-0.23-0.62
		c-0.02-0.06-0.05-0.11-0.07-0.17c-0.07-0.18-0.13-0.36-0.2-0.54c-0.43-1.21-0.81-2.45-1.13-3.71c-0.07-0.26-0.13-0.52-0.19-0.78
		c-0.13-0.57-0.25-1.14-0.37-1.73l14.24-2.96c0.05,0.28,0.11,0.56,0.16,0.83c0.05,0.25,0.11,0.5,0.17,0.74
		c0.06,0.26,0.13,0.52,0.2,0.78c0.07,0.26,0.14,0.51,0.22,0.76c0.08,0.26,0.16,0.51,0.24,0.76c0.27,0.81,0.58,1.6,0.92,2.37
		c0.07,0.15,0.13,0.3,0.2,0.45c0.18,0.4,0.38,0.8,0.58,1.19c0.08,0.15,0.15,0.3,0.23,0.44c0.11,0.2,0.22,0.4,0.33,0.6
		c0.13,0.22,0.26,0.44,0.39,0.65c0.15,0.24,0.3,0.48,0.45,0.72c0.12,0.19,0.25,0.38,0.38,0.57c0.01,0.02,0.03,0.04,0.05,0.06
		c0.11,0.16,0.22,0.32,0.34,0.47c0.1,0.14,0.2,0.28,0.31,0.42c0.11,0.15,0.23,0.3,0.35,0.45c0.14,0.18,0.28,0.35,0.42,0.53
		c0.15,0.18,0.3,0.37,0.46,0.54c0.14,0.16,0.28,0.32,0.42,0.47c0.15,0.17,0.3,0.33,0.46,0.49c0.13,0.14,0.26,0.28,0.4,0.41
		c1.23,1.24,2.58,2.37,4.02,3.36C813.11,203.64,813.24,203.73,813.37,203.82z M806.86,62.14c-0.11,0.39-0.22,0.78-0.31,1.17
		l-2.74-0.64c0.1-0.44,0.22-0.88,0.35-1.32c0.15-0.51,0.32-1.03,0.5-1.54l2.65,0.96C807.15,61.23,807,61.69,806.86,62.14z
		 M807.98,189.85l-2.56,1.16c-0.41-0.9-0.77-1.84-1.07-2.78l2.68-0.85C807.3,188.21,807.62,189.04,807.98,189.85z M805.97,67.69
		c-0.01,0.32-0.01,0.61-0.01,0.84v1.93h-2.81v-1.93c0-0.26,0-0.58,0.01-0.93L805.97,67.69z M805.96,75.16v2.82h-2.81v-2.82H805.96z
		 M805.96,82.68v2.82h-2.81v-2.82H805.96z M805.96,90.2v2.82h-2.81V90.2H805.96z M805.96,97.71v2.82h-2.81v-2.82H805.96z
		 M805.96,105.23v2.82h-2.81v-2.82H805.96z M805.96,112.75v2.82h-2.81v-2.82H805.96z M805.96,120.26v2.82h-2.81v-2.82H805.96z
		 M805.96,127.78v2.82h-2.81v-2.82H805.96z M805.96,135.3v2.82h-2.81v-2.82H805.96z M805.96,142.81v2.82h-2.81v-2.82H805.96z
		 M805.96,150.33v2.82h-2.81v-2.82H805.96z M805.96,157.85v2.82h-2.81v-2.82H805.96z M805.96,165.36v2.82h-2.81v-2.82H805.96z
		 M805.96,172.88v2.82h-2.81v-2.82H805.96z M805.96,180.4v0.05c0,0.88,0.05,1.75,0.15,2.61l-2.8,0.32
		c-0.11-0.96-0.16-1.94-0.16-2.92v-0.05H805.96z M810.18,193.68c0.51,0.72,1.07,1.42,1.66,2.07l-2.09,1.88
		c-0.66-0.74-1.29-1.52-1.86-2.32L810.18,193.68z M809.21,56.79l-2.41-1.45c0.51-0.85,1.08-1.67,1.68-2.46l2.23,1.72
		C810.17,55.3,809.67,56.03,809.21,56.79z M808.56,49.19c-0.15,0.16-0.31,0.32-0.46,0.49c-0.14,0.15-0.28,0.31-0.42,0.47
		c-0.02,0.03-0.04,0.06-0.07,0.08c-0.13,0.15-0.27,0.31-0.39,0.47c-0.15,0.17-0.29,0.35-0.42,0.53c-0.14,0.18-0.28,0.36-0.41,0.53
		c-0.41,0.54-0.79,1.1-1.15,1.66c-0.1,0.16-0.21,0.32-0.31,0.49c-0.14,0.22-0.27,0.45-0.4,0.67c-0.11,0.19-0.22,0.38-0.32,0.57
		c-0.14,0.26-0.28,0.52-0.41,0.78c-0.07,0.14-0.14,0.29-0.21,0.43c-0.09,0.19-0.17,0.37-0.26,0.56c-0.11,0.23-0.21,0.46-0.31,0.7
		c-0.18,0.42-0.35,0.84-0.5,1.28c-0.06,0.15-0.11,0.3-0.16,0.45c-0.05,0.15-0.1,0.3-0.15,0.45c-0.08,0.24-0.16,0.49-0.23,0.74
		c-0.06,0.2-0.12,0.4-0.17,0.61c-0.08,0.31-0.16,0.62-0.24,0.93c-0.05,0.23-0.1,0.45-0.15,0.68c0,0.01,0,0.03-0.01,0.04h-14.74
		c0.05-0.39,0.11-0.78,0.17-1.16c0.01-0.09,0.03-0.19,0.05-0.28c0.02-0.16,0.05-0.33,0.08-0.49c0.04-0.21,0.08-0.42,0.12-0.63
		c0.04-0.21,0.08-0.42,0.13-0.63c0.08-0.42,0.18-0.84,0.29-1.26c0.1-0.42,0.21-0.83,0.32-1.24c0.06-0.21,0.11-0.41,0.18-0.61
		c0.12-0.41,0.25-0.82,0.38-1.22c0.06-0.18,0.12-0.36,0.18-0.54c0.08-0.22,0.15-0.45,0.24-0.67c0.07-0.2,0.14-0.4,0.22-0.6
		c0.07-0.2,0.15-0.39,0.23-0.59c0.25-0.64,0.53-1.28,0.81-1.91c0.11-0.23,0.22-0.47,0.32-0.7c0.86-1.81,1.85-3.55,2.95-5.21
		c0.23-0.34,0.45-0.68,0.69-1.01c0.24-0.34,0.48-0.68,0.74-1.01c0.21-0.28,0.42-0.56,0.64-0.83c0.12-0.16,0.25-0.32,0.38-0.47
		c0.14-0.18,0.29-0.35,0.44-0.53c0.05-0.07,0.1-0.13,0.16-0.2c0.22-0.27,0.45-0.53,0.68-0.79c0.04-0.04,0.07-0.08,0.11-0.12
		c0.16-0.19,0.34-0.38,0.52-0.57c0.7-0.76,1.43-1.48,2.18-2.18c0.21-0.19,0.42-0.38,0.63-0.57c0.11-0.1,0.22-0.2,0.33-0.3
		c0.26-0.23,0.52-0.45,0.78-0.67c0.31-0.26,0.63-0.52,0.95-0.77c0.01,0,0.01-0.01,0.02-0.01c0.33-0.26,0.66-0.51,0.99-0.76
		c0.33-0.25,0.67-0.49,1.01-0.72c0-0.01,0.01-0.01,0.02-0.01c0.27-0.19,0.54-0.38,0.82-0.56c0.13-0.08,0.26-0.17,0.39-0.25
		c0.29-0.19,0.59-0.38,0.88-0.55c0.36-0.22,0.72-0.44,1.08-0.64c0.33-0.2,0.67-0.38,1.01-0.56c0.03-0.02,0.06-0.04,0.09-0.05
		l6.66,12.92c-0.69,0.38-1.37,0.78-2.03,1.21c-0.17,0.11-0.34,0.22-0.51,0.34c-0.37,0.25-0.72,0.51-1.07,0.77
		c-0.13,0.1-0.26,0.2-0.39,0.3C810.48,47.31,809.49,48.22,808.56,49.19z M813.73,51.36l-1.86-2.11c0.74-0.66,1.53-1.28,2.34-1.84
		l1.61,2.31C815.1,50.23,814.4,50.78,813.73,51.36z M819.67,47.56l-1.13-2.58c0.91-0.4,1.85-0.75,2.79-1.04l0.83,2.69
		C821.32,46.89,820.48,47.2,819.67,47.56z M829.14,45.64l-0.29,0c-0.79,0-1.58,0.04-2.36,0.12l-0.29-2.8
		c0.88-0.09,1.77-0.14,2.65-0.14l0.33,0L829.14,45.64z M836.09,46.81c-0.84-0.28-1.7-0.51-2.56-0.69l0.57-2.76
		c0.97,0.2,1.94,0.46,2.88,0.78L836.09,46.81z M842.35,50.05l-0.13-0.09c-0.68-0.49-1.38-0.94-2.1-1.35l1.39-2.45
		c0.8,0.46,1.59,0.97,2.35,1.51l0.15,0.11L842.35,50.05z M845.39,45.89c-0.06-0.04-0.11-0.08-0.16-0.12
		c-0.15-0.11-0.31-0.23-0.47-0.33c-0.12-0.08-0.23-0.16-0.35-0.24c-0.03-0.02-0.07-0.05-0.1-0.07c-0.2-0.13-0.39-0.25-0.59-0.38
		c-0.23-0.15-0.46-0.29-0.69-0.42c-0.17-0.1-0.35-0.21-0.53-0.3c-0.07-0.04-0.15-0.08-0.22-0.12c-0.03-0.02-0.07-0.04-0.1-0.06
		c-0.02-0.01-0.04-0.02-0.06-0.03c-0.18-0.1-0.36-0.19-0.53-0.28c-0.06-0.03-0.11-0.06-0.16-0.08c-0.04-0.02-0.08-0.05-0.12-0.06
		c-0.02-0.01-0.05-0.02-0.08-0.03c-0.14-0.07-0.27-0.14-0.41-0.2c-0.02-0.01-0.05-0.03-0.08-0.04c-0.01,0-0.02,0-0.03-0.01
		c-0.02-0.01-0.03-0.02-0.05-0.03c-0.02-0.01-0.04-0.02-0.06-0.03c-0.18-0.08-0.36-0.16-0.53-0.24c-0.03-0.02-0.07-0.03-0.1-0.05
		c-0.07-0.03-0.13-0.06-0.2-0.08c-0.38-0.16-0.76-0.31-1.14-0.45c-0.16-0.06-0.32-0.12-0.48-0.17c-0.01,0-0.03-0.01-0.04-0.01
		c-0.01,0-0.03-0.01-0.05-0.02c0,0,0,0,0,0c-0.29-0.1-0.58-0.2-0.87-0.29c-0.55-0.17-1.1-0.32-1.66-0.46c0,0-0.01,0-0.01,0
		c-0.56-0.14-1.13-0.25-1.7-0.36c-0.23-0.04-0.46-0.08-0.69-0.12c-0.23-0.04-0.46-0.07-0.7-0.1c-0.41-0.05-0.83-0.1-1.25-0.13
		c-0.14-0.01-0.28-0.02-0.43-0.03c-0.15-0.01-0.3-0.02-0.45-0.03c-0.24-0.01-0.48-0.02-0.72-0.03c-0.24,0-0.48-0.01-0.72-0.01
		s-0.48,0-0.72,0.01c-0.23,0-0.45,0.01-0.68,0.03c-0.12,0-0.24,0.01-0.36,0.02c-0.19,0.01-0.38,0.02-0.58,0.04
		c-0.68,0.06-1.35,0.14-2.01,0.24c-0.2,0.03-0.41,0.07-0.61,0.1c-0.22,0.04-0.43,0.08-0.64,0.12c-0.06,0.01-0.12,0.02-0.18,0.04
		c-0.3,0.06-0.59,0.13-0.88,0.2c-0.24,0.06-0.49,0.12-0.73,0.19c-0.54,0.15-1.07,0.31-1.6,0.49c0,0,0,0-0.01,0l-6.72-13.02
		c0.93-0.37,1.88-0.71,2.84-1.01c0.19-0.06,0.38-0.12,0.57-0.17c0.17-0.05,0.34-0.1,0.51-0.15c0.28-0.08,0.56-0.16,0.84-0.23
		c0.21-0.06,0.41-0.11,0.62-0.16c0.23-0.06,0.45-0.11,0.67-0.16c0.04-0.01,0.08-0.02,0.12-0.03c0.3-0.07,0.61-0.14,0.91-0.2
		c0.04-0.01,0.08-0.02,0.13-0.03c0.25-0.05,0.5-0.1,0.75-0.14c0.15-0.03,0.29-0.06,0.43-0.08c0.19-0.04,0.38-0.07,0.58-0.09
		c0.47-0.08,0.95-0.15,1.43-0.21c0.26-0.03,0.52-0.07,0.78-0.09c0.09-0.01,0.19-0.02,0.28-0.03c0.28-0.03,0.55-0.06,0.83-0.08
		c0.07-0.01,0.14-0.01,0.2-0.02c0.2-0.01,0.39-0.03,0.59-0.04c0.19-0.01,0.38-0.02,0.58-0.03c0.68-0.03,1.37-0.05,2.07-0.05
		c0.37,0,0.73,0,1.09,0.01h0.04c0.33,0.01,0.67,0.02,1,0.04c0.05,0,0.1,0,0.15,0c0.33,0.01,0.67,0.04,1,0.07
		c0.31,0.02,0.63,0.05,0.94,0.08c0.08,0,0.16,0.01,0.24,0.02c0.24,0.02,0.48,0.05,0.71,0.08c0.17,0.02,0.35,0.04,0.53,0.07
		c0.61,0.08,1.22,0.17,1.83,0.29c0.01,0,0.02,0,0.03,0c1.04,0.18,2.06,0.41,3.07,0.67c6.26,1.6,12.08,4.62,17.06,8.89l-0.01,0.01
		L846.21,46.5c-0.04-0.03-0.07-0.06-0.1-0.08c0.03,0.02,0.06,0.05,0.08,0.07c-0.11-0.09-0.23-0.18-0.34-0.27
		c-0.08-0.06-0.15-0.12-0.23-0.17C845.55,46,845.47,45.94,845.39,45.89z M847.34,55.05c-0.38-0.52-0.8-1.04-1.23-1.53
		c-0.15-0.18-0.3-0.35-0.46-0.52l2.07-1.9c0.18,0.2,0.35,0.39,0.52,0.58c0.47,0.54,0.94,1.12,1.37,1.71L847.34,55.05z M849.59,58.85
		l2.55-1.19c0.42,0.9,0.79,1.83,1.1,2.77l-2.67,0.89C850.29,60.48,849.96,59.65,849.59,58.85z M851.55,65.62l2.79-0.36
		c0.13,0.98,0.2,1.98,0.21,2.97l-2.81,0.03C851.73,67.39,851.67,66.5,851.55,65.62z M851.74,181.02c0-0.19,0-0.39,0-0.58v-2.26h2.81
		v2.26c0,0.18,0,0.36,0,0.54L851.74,181.02z M852.04,185.85l2.8-0.32c0.1,0.91,0.23,1.82,0.39,2.71l-2.77,0.48
		C852.29,187.78,852.15,186.81,852.04,185.85z M854.19,195.57c-0.23-0.7-0.46-1.42-0.66-2.13l2.71-0.76c0.19,0.67,0.4,1.35,0.62,2
		c0.07,0.2,0.14,0.4,0.21,0.6l-2.66,0.93C854.33,196,854.26,195.79,854.19,195.57z M857.55,203.28c-0.46-0.85-0.9-1.72-1.31-2.59
		l2.55-1.2c0.38,0.82,0.8,1.64,1.24,2.44L857.55,203.28z M861.79,209.74l-0.04-0.05c-0.22-0.29-0.43-0.56-0.64-0.84
		c-0.35-0.47-0.7-0.96-1.03-1.45l2.32-1.59c0.31,0.46,0.64,0.92,0.97,1.36c0.2,0.27,0.4,0.53,0.6,0.78l0.05,0.07L861.79,209.74z
		 M863.68,203.51c-4.41-6.81-6.78-14.76-6.78-23.07v-12.83h14.54v12.83c0,5.84,1.8,11.28,4.87,15.78l-11.14,6.43L863.68,203.51z
		 M867.02,215.45c-0.4-0.38-0.8-0.76-1.2-1.15c-0.29-0.29-0.58-0.59-0.87-0.89l2.04-1.94c0.27,0.28,0.54,0.56,0.82,0.83
		c0.37,0.37,0.75,0.73,1.13,1.08L867.02,215.45z M873.1,220.23c-0.62-0.41-1.24-0.85-1.85-1.29c-0.17-0.13-0.35-0.26-0.52-0.39
		l1.69-2.25c0.16,0.12,0.33,0.24,0.49,0.37c0.57,0.42,1.15,0.83,1.74,1.22L873.1,220.23z M879.86,223.99
		c-0.88-0.4-1.76-0.83-2.61-1.28l1.31-2.49c0.8,0.42,1.63,0.83,2.45,1.2L879.86,223.99z M887.15,226.58
		c-0.93-0.25-1.87-0.53-2.78-0.83l0.89-2.67c0.86,0.29,1.74,0.55,2.62,0.78L887.15,226.58z M894.77,227.96
		c-0.96-0.09-1.93-0.22-2.88-0.37l0.44-2.78c0.89,0.14,1.81,0.26,2.71,0.35L894.77,227.96z M899.6,228.19l-0.01-2.81
		c0.91,0,1.82-0.03,2.73-0.09l0.18,2.81C901.54,228.15,900.56,228.19,899.6,228.19z M899.49,223.03c-8.98,0-17.54-2.76-24.7-7.88
		c-1.88-1.34-3.66-2.85-5.33-4.5c-1.06-1.06-2.07-2.17-3.01-3.32l12.86-7.42c0.87,0.9,1.8,1.74,2.78,2.52
		c4.78,3.8,10.83,6.07,17.4,6.07c0.97,0,1.92-0.05,2.88-0.15l1.2,14.49C902.22,222.97,900.86,223.03,899.49,223.03z M917.4,194.68
		l0.98-1.23l2.11,2.11l-0.94,0.94c-0.29,0.36-0.59,0.72-0.91,1.07l-0.09-0.08l-0.05,0.05l-0.99-0.99l-0.96-0.86
		C916.84,195.36,917.13,195.02,917.4,194.68z M913.32,198.67l1.71,2.24c-0.78,0.6-1.61,1.15-2.45,1.65l-1.44-2.42
		C911.89,199.69,912.62,199.2,913.32,198.67z M905.29,205.48l-0.64-2.74c0.27-0.06,0.55-0.13,0.82-0.21
		c0.59-0.16,1.16-0.34,1.66-0.52l0.06-0.02l0.46,1.33l0.44,1.34c-0.58,0.21-1.23,0.41-1.89,0.59
		C905.91,205.33,905.6,205.41,905.29,205.48z M908.4,227.35c-0.36,0.07-0.73,0.13-1.09,0.2l-0.46-2.78
		c0.34-0.06,0.69-0.12,1.03-0.18c0.55-0.1,1.1-0.22,1.65-0.34l0.63,2.74C909.57,227.12,908.98,227.24,908.4,227.35z M914.81,225.67
		l-0.9-2.67c0.86-0.29,1.72-0.61,2.56-0.95l1.06,2.61C916.64,225.02,915.73,225.36,914.81,225.67z M908.22,222.14l-1.21-14.68
		c1.77-0.48,3.49-1.15,5.13-1.98c2.36-1.2,4.54-2.72,6.46-4.52l10.3,10.3c-3.13,2.98-6.66,5.46-10.52,7.37
		C915.12,220.24,911.72,221.41,908.22,222.14z M921.91,222.6l-1.32-2.48c0.8-0.43,1.6-0.88,2.37-1.36l1.47,2.4
		C923.61,221.66,922.76,222.15,921.91,222.6z M928.43,218.43l-1.71-2.24c0.72-0.55,1.44-1.13,2.12-1.72l1.84,2.13
		C929.95,217.22,929.19,217.84,928.43,218.43z M934.22,213.21l-2.05-1.93c0.01-0.01,0.02-0.02,0.03-0.03l-0.04-0.04l1.99-1.99
		l1.93,1.93l-0.88,0.99C934.88,212.5,934.55,212.86,934.22,213.21z"/>
</g>
</svg>
