<?xml version="1.0" encoding="utf-8"?>
<!-- Generator: Adobe Illustrator 27.5.0, SVG Export Plug-In . SVG Version: 6.00 Build 0)  -->
<svg version="1.1" id="Layer_1" xmlns="http://www.w3.org/2000/svg" xmlns:xlink="http://www.w3.org/1999/xlink" x="0px" y="0px"
	 viewBox="0 0 1000 640" style="enable-background:new 0 0 1000 640;" xml:space="preserve">
<style type="text/css">
	.st0{fill:#0DCAF0;}
	.st1{fill:#F1AEB5;}
	.st2{fill:#FFFFFF;}
</style>
<g>
	<g>
		<path class="st0" d="M294.89,27.75l-41.37,277.89h-37.47l-30.44-180.32h-0.78l-30.05,180.32h-37.47L75.94,27.75h42.15
			l19.91,176.42h0.78L170,27.75h30.44l32.4,180.71h0.78l19.12-180.71H294.89z"/>
		<path class="st0" d="M319.87,305.65V27.75h118.65v37.47h-78.84v81.57h68.69v37.47h-68.69v81.57h78.84v39.81H319.87z"/>
	</g>
	<path class="st1" d="M617.96,419.07h-39.81v-8.98c0-9.11-2.15-16.98-6.44-23.61c-4.29-6.64-11.51-9.95-21.66-9.95
		c-5.46,0-9.89,1.04-13.27,3.12c-3.38,2.09-6.12,4.68-8.2,7.81c-2.09,3.38-3.51,7.22-4.29,11.51c-0.78,4.29-1.17,8.78-1.17,13.47
		c0,5.46,0.2,10.02,0.59,13.66c0.39,3.65,1.37,6.9,2.93,9.76c1.56,2.87,3.84,5.34,6.83,7.42c2.99,2.09,7.09,4.17,12.29,6.24
		l30.44,12.1c8.84,3.38,16,7.35,21.47,11.9c5.46,4.56,9.76,9.82,12.88,15.81c2.86,6.24,4.81,13.34,5.85,21.27
		c1.04,7.94,1.56,16.98,1.56,27.13c0,11.71-1.17,22.58-3.51,32.59c-2.34,10.02-6.12,18.54-11.32,25.57
		c-5.46,7.29-12.62,13.01-21.47,17.17c-8.85,4.16-19.65,6.24-32.39,6.24c-9.63,0-18.61-1.7-26.93-5.07
		c-8.33-3.38-15.48-8.06-21.47-14.05c-5.99-5.98-10.73-12.94-14.25-20.88c-3.51-7.93-5.27-16.59-5.27-25.96V538.5h39.81v12.49
		c0,7.29,2.15,13.86,6.44,19.71c4.29,5.85,11.51,8.78,21.66,8.78c6.76,0,12.03-0.98,15.81-2.93c3.77-1.95,6.7-4.74,8.78-8.39
		c2.08-3.64,3.32-8,3.71-13.08c0.39-5.07,0.59-10.73,0.59-16.98c0-7.28-0.26-13.27-0.78-17.95c-0.52-4.68-1.56-8.45-3.12-11.32
		c-1.82-2.86-4.23-5.2-7.22-7.03c-2.99-1.82-6.96-3.77-11.9-5.85l-28.49-11.71c-17.17-7.03-28.69-16.33-34.54-27.91
		c-5.85-11.57-8.78-26.08-8.78-43.52c0-10.4,1.43-20.3,4.29-29.66c2.86-9.37,7.15-17.43,12.88-24.2
		c5.46-6.76,12.42-12.16,20.88-16.2c8.45-4.03,18.54-6.05,30.25-6.05c9.89,0,18.93,1.82,27.13,5.46c8.2,3.65,15.28,8.46,21.27,14.44
		c11.97,12.49,17.95,26.8,17.95,42.93V419.07z"/>
	<polygon class="st1" points="924.06,504.72 924.06,544.53 805.42,544.53 805.42,336.72 845.23,336.72 845.23,504.72 	"/>
	<g>
		<path class="st2" d="M280.65,462.42v-82.71h-9.69v-15.5h9.69v-13.37c0-4.78,0.71-8.81,2.13-12.11c1.42-3.29,3.36-6.04,5.81-8.23
			c2.32-2.19,5-3.74,8.04-4.65c3.03-0.9,6.17-1.36,9.39-1.36h9.1v18.6h-8.91c-3.87,0-5.81,2.26-5.81,6.78v14.33h14.72v15.5h-14.72
			v82.71H280.65z"/>
		<path class="st2" d="M319.39,397.14c0-4,0.26-7.68,0.77-11.04c0.51-3.36,1.48-6.33,2.91-8.91c2.32-4.26,5.65-7.68,9.98-10.27
			c4.33-2.58,9.59-3.87,15.79-3.87c6.2,0,11.46,1.29,15.79,3.87c4.32,2.58,7.65,6.01,9.98,10.27c1.42,2.58,2.39,5.55,2.91,8.91
			c0.51,3.36,0.77,7.04,0.77,11.04v32.35c0,4-0.26,7.68-0.77,11.04c-0.52,3.36-1.49,6.33-2.91,8.91c-2.32,4.26-5.65,7.68-9.98,10.27
			c-4.33,2.58-9.59,3.87-15.79,3.87c-6.2,0-11.46-1.29-15.79-3.87c-4.33-2.58-7.65-6.01-9.98-10.27c-1.42-2.58-2.39-5.55-2.91-8.91
			c-0.52-3.36-0.77-7.04-0.77-11.04V397.14z M339.15,432.59c0,3.75,0.87,6.56,2.61,8.43c1.74,1.87,4.1,2.81,7.07,2.81
			c2.97,0,5.33-0.93,7.07-2.81c1.74-1.87,2.62-4.68,2.62-8.43v-38.55c0-3.74-0.87-6.55-2.62-8.43c-1.74-1.87-4.1-2.81-7.07-2.81
			c-2.97,0-5.33,0.94-7.07,2.81c-1.74,1.87-2.61,4.68-2.61,8.43V432.59z"/>
		<path class="st2" d="M392.8,462.42v-98.21h19.76v10.46c4-3.61,7.94-6.46,11.82-8.52c3.87-2.06,8.65-3.1,14.33-3.1v20.92
			c-1.94-0.77-3.94-1.16-6-1.16c-2.07,0-4.29,0.36-6.68,1.07c-2.39,0.71-4.55,1.91-6.49,3.58c-2.07,1.68-3.75,3.87-5.04,6.59
			c-1.29,2.71-1.94,6.07-1.94,10.07v58.3H392.8z"/>
	</g>
	<g>
		<path class="st2" d="M260.12,515.76v-29.83h19.76v29.83h12.2v15.5h-12.2v54.43c0,2.32,0.22,4.13,0.68,5.42
			c0.45,1.29,1.19,2.26,2.23,2.91c1.03,0.65,2.29,1.03,3.78,1.16c1.48,0.13,3.32,0.19,5.52,0.19v18.6h-8.14
			c-4.52,0-8.3-0.71-11.33-2.13c-3.04-1.42-5.46-3.23-7.26-5.42c-1.81-2.19-3.13-4.68-3.97-7.46c-0.84-2.78-1.26-5.45-1.26-8.04
			v-59.66h-9.88v-15.5H260.12z"/>
		<path class="st2" d="M299.63,613.97V476.05h19.76v49.2h0.39c2.06-3.1,4.55-5.65,7.46-7.65c2.91-2,6.62-3,11.14-3
			c2.45,0,4.91,0.42,7.36,1.26c2.45,0.84,4.65,2.23,6.59,4.16c1.94,1.94,3.49,4.42,4.65,7.46c1.16,3.04,1.74,6.75,1.74,11.14v75.35
			h-19.76v-67.99c0-3.61-0.84-6.46-2.52-8.52c-1.68-2.06-4.07-3.1-7.17-3.1c-3.75,0-6.33,1.16-7.75,3.49
			c-1.42,2.32-2.13,5.68-2.13,10.07v66.05H299.63z"/>
		<path class="st2" d="M432.12,572.32H393v13.37c0,3.1,0.87,5.49,2.61,7.17c1.74,1.68,4.1,2.52,7.07,2.52c3.74,0,6.23-1.1,7.46-3.29
			c1.23-2.19,1.97-4.39,2.23-6.59h19.76c0,8.65-2.65,15.63-7.94,20.92c-2.58,2.71-5.68,4.84-9.3,6.39
			c-3.62,1.55-7.68,2.32-12.2,2.32c-6.2,0-11.46-1.29-15.79-3.87c-4.33-2.58-7.65-6.01-9.98-10.27c-1.42-2.58-2.39-5.55-2.91-8.91
			c-0.52-3.36-0.77-7.04-0.77-11.04v-32.35c0-4,0.26-7.68,0.77-11.04c0.51-3.36,1.48-6.33,2.91-8.91c2.32-4.26,5.65-7.68,9.98-10.27
			c4.33-2.58,9.59-3.87,15.79-3.87c4.52,0,8.62,0.77,12.3,2.32c3.68,1.55,6.81,3.68,9.39,6.39c5.16,5.81,7.75,13.11,7.75,21.89
			V572.32z M393,556.83h19.37v-11.24c0-3.74-0.87-6.55-2.62-8.43c-1.74-1.87-4.1-2.81-7.07-2.81c-2.97,0-5.33,0.94-7.07,2.81
			c-1.74,1.87-2.61,4.68-2.61,8.43V556.83z"/>
	</g>
	<g>
		<path class="st2" d="M533.8,120.46v8.52c0,4.26-0.81,8.3-2.42,12.11c-1.62,3.81-3.84,7.2-6.68,10.17
			c-2.84,2.97-6.17,5.33-9.98,7.07c-3.81,1.74-7.91,2.62-12.3,2.62c-3.75,0-7.55-0.52-11.43-1.55c-3.87-1.03-7.36-2.84-10.46-5.42
			c-3.1-2.58-5.65-5.91-7.65-9.98c-2-4.07-3-9.26-3-15.59V52.47c0-4.52,0.77-8.72,2.32-12.59c1.55-3.87,3.74-7.23,6.59-10.07
			c2.84-2.84,6.23-5.07,10.17-6.68c3.94-1.61,8.3-2.42,13.08-2.42c9.3,0,16.85,3.04,22.66,9.1c2.84,2.97,5.07,6.49,6.68,10.56
			c1.61,4.07,2.42,8.49,2.42,13.27v7.75h-19.76V54.8c0-3.87-1.1-7.23-3.29-10.07c-2.2-2.84-5.17-4.26-8.91-4.26
			c-4.91,0-8.17,1.52-9.78,4.55c-1.62,3.04-2.42,6.88-2.42,11.53v70.51c0,4,0.87,7.36,2.62,10.07c1.74,2.71,4.87,4.07,9.39,4.07
			c1.29,0,2.68-0.22,4.17-0.68c1.48-0.45,2.87-1.19,4.16-2.23c1.16-1.03,2.13-2.45,2.91-4.26c0.77-1.81,1.16-4.07,1.16-6.78v-6.78
			H533.8z"/>
		<path class="st2" d="M586.09,159.79v-10.07h-0.39c-2.58,3.62-5.2,6.39-7.84,8.33c-2.65,1.94-6.36,2.91-11.14,2.91
			c-2.32,0-4.68-0.36-7.07-1.07c-2.39-0.71-4.68-2.03-6.88-3.97c-2.2-1.81-3.97-4.42-5.33-7.84c-1.36-3.42-2.03-7.84-2.03-13.27
			c0-5.55,0.45-10.43,1.36-14.62c0.9-4.2,2.58-7.71,5.04-10.56c2.32-2.71,5.49-4.75,9.49-6.1c4-1.36,9.1-2.03,15.3-2.03
			c0.64,0,1.36,0,2.13,0c0.77,0,1.48,0.07,2.13,0.19c0.65,0.13,1.42,0.19,2.32,0.19c0.9,0,1.87,0.07,2.91,0.19V91.8
			c0-3.36-0.71-6.13-2.13-8.33c-1.42-2.19-4-3.29-7.75-3.29c-2.58,0-4.94,0.84-7.07,2.52c-2.13,1.68-3.52,4.13-4.16,7.36H545.8
			c0.51-8.78,3.49-15.88,8.91-21.31c2.58-2.58,5.68-4.62,9.3-6.1c3.61-1.48,7.68-2.23,12.2-2.23c4.13,0,8.01,0.65,11.62,1.94
			c3.61,1.29,6.78,3.23,9.49,5.81c2.58,2.58,4.65,5.81,6.2,9.69c1.55,3.87,2.32,8.4,2.32,13.56v68.38H586.09z M586.09,117.56
			c-2.2-0.39-4-0.58-5.42-0.58c-4.26,0-7.91,1-10.94,3c-3.04,2-4.55,5.65-4.55,10.94c0,3.75,0.9,6.78,2.71,9.1
			c1.81,2.32,4.32,3.49,7.55,3.49c3.36,0,5.97-1.1,7.84-3.29c1.87-2.19,2.81-5.29,2.81-9.3V117.56z"/>
		<path class="st2" d="M620.38,159.79V61.58h19.76v9.49h0.39c2.06-3.1,4.55-5.65,7.46-7.65c2.91-2,6.62-3,11.14-3
			c2.45,0,4.91,0.42,7.36,1.26c2.45,0.84,4.65,2.23,6.59,4.16c1.94,1.94,3.49,4.42,4.65,7.46c1.16,3.04,1.74,6.75,1.74,11.14v75.35
			H659.7V91.8c0-3.61-0.84-6.46-2.52-8.52c-1.68-2.06-4.07-3.1-7.17-3.1c-3.75,0-6.33,1.16-7.75,3.49
			c-1.42,2.32-2.13,5.68-2.13,10.07v66.05H620.38z"/>
		<path class="st2" d="M695.73,55.96V21.87h19.76v19.76L695.73,55.96z"/>
		<path class="st2" d="M731.76,61.58V31.75h19.76v29.83h12.2v15.5h-12.2v54.43c0,2.32,0.22,4.13,0.68,5.42
			c0.45,1.29,1.19,2.26,2.23,2.91c1.03,0.65,2.29,1.03,3.78,1.16c1.48,0.13,3.32,0.19,5.52,0.19v18.6h-8.14
			c-4.52,0-8.3-0.71-11.33-2.13c-3.04-1.42-5.46-3.23-7.26-5.42c-1.81-2.19-3.13-4.68-3.97-7.46c-0.84-2.78-1.26-5.45-1.26-8.04
			V77.07h-9.88v-15.5H731.76z"/>
	</g>
	<g>
		<path class="st2" d="M573.5,173.42l-20.53,137.92h-18.6l-15.11-89.49h-0.39l-14.91,89.49h-18.6l-20.53-137.92h20.92l9.88,87.55
			h0.39l15.5-87.55h15.11l16.08,89.69h0.39l9.49-89.69H573.5z"/>
		<path class="st2" d="M618.64,311.34v-10.07h-0.39c-2.58,3.62-5.2,6.39-7.84,8.33c-2.65,1.94-6.36,2.91-11.14,2.91
			c-2.32,0-4.68-0.36-7.07-1.07c-2.39-0.71-4.68-2.03-6.88-3.97c-2.2-1.81-3.97-4.42-5.33-7.84c-1.36-3.42-2.03-7.84-2.03-13.27
			c0-5.55,0.45-10.43,1.36-14.62c0.9-4.2,2.58-7.71,5.04-10.56c2.32-2.71,5.49-4.75,9.49-6.1c4-1.36,9.1-2.03,15.3-2.03
			c0.65,0,1.36,0,2.13,0s1.48,0.07,2.13,0.19c0.64,0.13,1.42,0.19,2.32,0.19c0.9,0,1.87,0.07,2.91,0.19v-10.27
			c0-3.36-0.71-6.13-2.13-8.33c-1.42-2.19-4-3.29-7.75-3.29c-2.58,0-4.94,0.84-7.07,2.52c-2.13,1.68-3.52,4.13-4.16,7.36h-19.18
			c0.52-8.78,3.49-15.88,8.91-21.31c2.58-2.58,5.68-4.62,9.3-6.1c3.61-1.48,7.68-2.23,12.2-2.23c4.13,0,8,0.65,11.62,1.94
			c3.61,1.29,6.78,3.23,9.49,5.81c2.58,2.58,4.65,5.81,6.2,9.69c1.55,3.87,2.32,8.4,2.32,13.56v68.38H618.64z M618.64,269.11
			c-2.2-0.39-4-0.58-5.42-0.58c-4.26,0-7.91,1-10.94,3c-3.04,2-4.55,5.65-4.55,10.94c0,3.75,0.9,6.78,2.71,9.1
			c1.81,2.32,4.33,3.49,7.55,3.49c3.36,0,5.97-1.1,7.84-3.29c1.87-2.19,2.81-5.29,2.81-9.3V269.11z"/>
		<path class="st2" d="M652.92,193.18v-19.76h19.76v19.76H652.92z M652.92,311.34v-98.21h19.76v98.21H652.92z"/>
		<path class="st2" d="M688.95,213.13V183.3h19.76v29.83h12.2v15.5h-12.2v54.43c0,2.32,0.22,4.13,0.68,5.42
			c0.45,1.29,1.19,2.26,2.23,2.91c1.03,0.65,2.29,1.03,3.78,1.16c1.48,0.13,3.32,0.19,5.52,0.19v18.6h-8.14
			c-4.52,0-8.3-0.71-11.33-2.13c-3.04-1.42-5.46-3.23-7.26-5.42c-1.81-2.19-3.13-4.68-3.97-7.46c-0.84-2.78-1.26-5.45-1.26-8.04
			v-59.66h-9.88v-15.5H688.95z"/>
	</g>
	<path d="M684.99,602.43c0.94,0.52,1.91,1.01,2.89,1.46C686.89,603.43,685.93,602.94,684.99,602.43z M748.44,395.07
		c0.19,0.86,0.36,1.74,0.5,2.62C748.81,396.81,748.64,395.93,748.44,395.07z M739.87,378.56c-0.02-0.01-0.04-0.03-0.05-0.05
		c0.04,0.04,0.07,0.07,0.1,0.12c0.04,0.04,0.07,0.07,0.11,0.11C739.97,378.68,739.92,378.61,739.87,378.56z M735,374.01
		c-0.04-0.03-0.08-0.06-0.12-0.09c-0.08-0.06-0.15-0.12-0.23-0.17c0.15,0.11,0.31,0.23,0.46,0.36
		C735.08,374.07,735.04,374.03,735,374.01z M747.79,392.62c-0.04-0.12-0.07-0.23-0.11-0.35c0.04,0.13,0.08,0.26,0.12,0.39
		c0.03,0.09,0.06,0.19,0.09,0.29C747.85,392.84,747.82,392.73,747.79,392.62z M746.79,389.76c-0.03-0.08-0.06-0.16-0.1-0.24
		c0.09,0.23,0.18,0.46,0.27,0.69C746.9,390.06,746.85,389.91,746.79,389.76z M747.1,390.58c0.04,0.11,0.08,0.21,0.11,0.32
		c0.08,0.22,0.16,0.44,0.24,0.67C747.34,391.24,747.22,390.91,747.1,390.58z M744.3,384.64c-0.08-0.14-0.16-0.27-0.24-0.41
		c0.11,0.19,0.22,0.39,0.34,0.59C744.37,384.76,744.33,384.7,744.3,384.64z M745.14,386.16c-0.06-0.11-0.11-0.22-0.17-0.32
		c0.09,0.17,0.19,0.36,0.28,0.54C745.21,386.3,745.17,386.23,745.14,386.16z M742.92,382.47c0.04,0.06,0.09,0.13,0.13,0.2
		c0.17,0.24,0.32,0.49,0.49,0.74C743.35,383.09,743.14,382.77,742.92,382.47z M742.37,381.67c0.08,0.11,0.16,0.22,0.24,0.34
		c0.06,0.07,0.11,0.15,0.16,0.22C742.64,382.05,742.51,381.86,742.37,381.67z M740.77,379.61c0.05,0.05,0.09,0.11,0.13,0.16h0.01
		C740.86,379.71,740.81,379.66,740.77,379.61z M732.6,372.28c0.04,0.03,0.09,0.06,0.14,0.09c0.16,0.1,0.31,0.21,0.47,0.32
		C733.01,372.54,732.81,372.4,732.6,372.28z M728.29,369.81c0.08,0.03,0.14,0.07,0.22,0.11c0.03,0.01,0.07,0.03,0.1,0.04
		C728.5,369.92,728.4,369.87,728.29,369.81z M727.76,369.56c0.03,0.01,0.04,0.02,0.07,0.04c0.01,0.01,0.03,0.01,0.04,0.01
		C727.83,369.6,727.8,369.58,727.76,369.56z"/>
	<path d="M747.79,392.62c-0.04-0.12-0.07-0.23-0.11-0.35c0.04,0.13,0.08,0.26,0.12,0.39C747.8,392.65,747.79,392.63,747.79,392.62z
		 M735,374.01c-0.04-0.03-0.08-0.06-0.12-0.09c-0.08-0.06-0.15-0.12-0.23-0.17c0.15,0.11,0.31,0.23,0.46,0.36
		C735.08,374.07,735.04,374.03,735,374.01z"/>
	<path d="M739.87,378.56c-0.02-0.01-0.04-0.03-0.05-0.05c0.04,0.04,0.07,0.07,0.1,0.12C739.9,378.6,739.88,378.58,739.87,378.56z
		 M744.3,384.64c-0.08-0.14-0.16-0.27-0.24-0.41c0.11,0.19,0.22,0.39,0.34,0.59C744.37,384.76,744.33,384.7,744.3,384.64z
		 M745.14,386.16c-0.06-0.11-0.11-0.22-0.17-0.32c0.09,0.17,0.19,0.36,0.28,0.54C745.21,386.3,745.17,386.23,745.14,386.16z
		 M746.79,389.76c-0.03-0.08-0.06-0.16-0.1-0.24c0.09,0.23,0.18,0.46,0.27,0.69C746.9,390.06,746.85,389.91,746.79,389.76z
		 M747.1,390.58c0.04,0.11,0.08,0.21,0.11,0.32c0.08,0.22,0.16,0.44,0.24,0.67C747.34,391.24,747.22,390.91,747.1,390.58z"/>
	<path class="st1" d="M830.62,564.78c-2.64,5.26-6.91,9.55-12.16,12.2c-1.02,0.52-2.07,0.97-3.16,1.36
		c-0.66,0.24-1.32,0.44-2.01,0.62c-1.35,0.37-2.74,0.64-4.16,0.79c-0.99,0.11-1.99,0.17-3.01,0.17c-6.82,0-13.07-2.51-17.86-6.65
		c-0.66-0.57-1.28-1.16-1.87-1.79c-0.89-0.92-1.71-1.89-2.46-2.93c-3.26-4.51-5.18-10.03-5.18-16v-149.1
		c0-4.66-0.48-9.22-1.39-13.61c-2.55-12.34-8.52-23.44-16.86-32.26c-0.47-0.49-0.94-0.98-1.42-1.46c-0.26-0.26-0.51-0.51-0.77-0.76
		c-0.75-0.72-1.52-1.42-2.3-2.11h-0.01c-11.74-10.3-27.13-16.54-43.98-16.54c-9.05,0-17.67,1.8-25.54,5.07
		c-1.94,0.79-3.82,1.69-5.66,2.66c-19,10.07-32.56,29.04-35.1,51.37c-0.24,2.06-0.38,4.14-0.42,6.25c-0.01,0.46-0.01,0.93-0.01,1.39
		v149.1c0,2.19,0.11,4.36,0.31,6.49c0.2,2.09,0.5,4.16,0.9,6.2c4.14,21.53,18.63,39.38,38.09,48.16c1.89,0.86,3.84,1.62,5.82,2.31
		c6.78,2.32,14.05,3.58,21.62,3.58c12.11,0,23.47-3.22,33.26-8.86c-2.47-2.38-4.76-4.95-6.84-7.68c-3.02,1.6-6.2,2.94-9.51,3.97
		c0.01,0,0.01,0.01,0.01,0.01c-0.47,0.14-0.94,0.28-1.41,0.41c-0.3,0.09-0.61,0.17-0.91,0.25c-0.26,0.07-0.51,0.14-0.77,0.2
		c-1.11,0.28-2.24,0.52-3.37,0.74c-0.21,0.04-0.41,0.08-0.62,0.11c-0.31,0.05-0.61,0.11-0.91,0.15c-0.47,0.07-0.94,0.14-1.41,0.21
		c-0.36,0.05-0.71,0.09-1.07,0.13c-0.32,0.04-0.66,0.07-0.99,0.11c-0.77,0.07-1.56,0.13-2.33,0.17c-0.24,0.02-0.49,0.03-0.74,0.03
		c-0.14,0.01-0.28,0.02-0.42,0.02c-0.27,0.01-0.54,0.02-0.81,0.03c-0.39,0.01-0.77,0.01-1.16,0.01c-0.58,0-1.16-0.01-1.74-0.03
		c-0.34-0.01-0.67-0.02-1-0.04c-0.13,0-0.26-0.01-0.38-0.02c-0.36-0.02-0.72-0.04-1.09-0.07c-0.09-0.01-0.18-0.01-0.27-0.02
		c-0.44-0.03-0.88-0.07-1.32-0.11c-0.41-0.04-0.81-0.09-1.22-0.14c-0.19-0.03-0.38-0.05-0.57-0.08c-0.33-0.04-0.66-0.09-0.99-0.14
		c-0.06-0.01-0.12-0.01-0.19-0.03c-0.31-0.05-0.62-0.1-0.94-0.16c-0.24-0.04-0.49-0.08-0.74-0.13c-1.19-0.22-2.36-0.48-3.51-0.77
		c-0.36-0.09-0.72-0.18-1.07-0.28c-0.02-0.01-0.05-0.01-0.07-0.02c-0.26-0.06-0.51-0.14-0.76-0.21c-0.23-0.07-0.46-0.13-0.69-0.21
		c-0.61-0.18-1.21-0.37-1.8-0.58l6.35-18.3c0.24,0.08,0.47,0.16,0.71,0.23c0.24,0.07,0.47,0.15,0.72,0.22
		c0.21,0.07,0.43,0.13,0.65,0.19c0.19,0.06,0.39,0.11,0.59,0.16c0.19,0.05,0.38,0.1,0.57,0.14c0.12,0.03,0.24,0.06,0.37,0.09
		c0.29,0.07,0.57,0.13,0.86,0.19c0.31,0.06,0.61,0.12,0.92,0.17c0.28,0.06,0.57,0.1,0.85,0.14c0.04,0.01,0.07,0.01,0.11,0.02
		c0.22,0.03,0.44,0.06,0.66,0.09c0.62,0.08,1.24,0.15,1.87,0.2c0.26,0.02,0.51,0.04,0.77,0.06c0.16,0.01,0.32,0.02,0.48,0.02
		c0.3,0.02,0.6,0.03,0.9,0.04c0.32,0.01,0.64,0.01,0.96,0.01c0.66,0,1.32-0.02,1.98-0.06c0.56-0.02,1.12-0.07,1.69-0.12
		c1.32-0.13,2.64-0.33,3.94-0.6c3.33-0.69,6.5-1.82,9.44-3.34c-1.2-3.17-2.16-6.47-2.86-9.85c-4.14,2.52-9,3.97-14.19,3.97
		c-3.04,0-5.98-0.5-8.72-1.42c-2.01-0.68-3.91-1.58-5.68-2.68c-6.52-4.05-11.23-10.76-12.58-18.61c-0.26-1.51-0.4-3.07-0.4-4.66
		v-149.1c0-0.47,0.01-0.93,0.04-1.39c0.11-2.16,0.47-4.25,1.05-6.25c2.04-7.03,6.84-12.9,13.14-16.37c1.82-1,3.77-1.81,5.81-2.37
		h0.01c2.33-0.64,4.79-0.99,7.33-0.99c5.97,0,11.49,1.91,15.99,5.16c1.23,0.89,2.39,1.88,3.45,2.96c0.41,0.41,0.79,0.83,1.17,1.26
		c4.22,4.82,6.77,11.12,6.77,18v149.1c0,7.39,1.2,14.5,3.42,21.15c1.73,5.17,4.07,10.07,6.95,14.59c0.86,1.36,1.77,2.69,2.74,3.98
		c0.29,0.39,0.58,0.77,0.87,1.15c1.76,2.27,3.67,4.44,5.7,6.46c2.36,2.35,4.9,4.52,7.59,6.49c11.05,8.12,24.7,12.92,39.47,12.92
		c2.11,0,4.19-0.1,6.25-0.29c2.1-0.19,4.17-0.49,6.2-0.87c6.04-1.14,11.79-3.09,17.13-5.74c6.55-3.24,12.48-7.52,17.6-12.63
		c2.05-2.05,3.96-4.23,5.72-6.53L830.62,564.78z M734.66,607.98c0.48-0.2,0.97-0.4,1.45-0.61l1.24-1.01
		c0.38,0.47,0.77,0.94,1.17,1.41l1.63,1.91l-2.29,1.02c-0.59,0.26-1.18,0.51-1.78,0.76l-0.6-1.48c-0.35-0.41-0.69-0.83-1.03-1.25
		l0.4-0.32L734.66,607.98z M728.92,609.99l1.05,3.6c-1.22,0.36-2.47,0.68-3.71,0.97l-0.84-3.66
		C726.59,610.63,727.77,610.33,728.92,609.99z M719.5,611.95l0.47,3.72c-1.26,0.16-2.55,0.28-3.82,0.36l-0.24-3.74
		C717.1,612.21,718.31,612.1,719.5,611.95z M706.29,612.15c1.19,0.11,2.4,0.19,3.6,0.23l-0.13,3.75c-1.28-0.05-2.56-0.13-3.82-0.25
		L706.29,612.15z M696.82,610.47c1.16,0.3,2.34,0.57,3.52,0.81l-0.73,3.68c-1.25-0.25-2.51-0.54-3.74-0.86L696.82,610.47z
		 M722.22,581.29l1.86-0.66l0.68,2.24c0.07,0.23,0.14,0.45,0.21,0.67c0.08,0.26,0.15,0.49,0.23,0.71l-1.72,0.57
		c-0.43,0.15-0.86,0.3-1.3,0.43l-0.54,0.18c0,0,0-0.01-0.01-0.02c-0.01,0-0.03,0.01-0.04,0.01l-0.53-1.83h0l-0.51-1.77
		C721.11,581.67,721.67,581.48,722.22,581.29z M711.22,583.04c1.18,0.03,2.37-0.01,3.54-0.11l0.34,3.73
		c-1.02,0.09-2.06,0.14-3.09,0.14c-0.29,0-0.59,0-0.88-0.01L711.22,583.04z M701.98,581.36l0.32,0.11c1,0.34,2.04,0.62,3.07,0.85
		l-0.81,3.66c-1.17-0.26-2.33-0.58-3.46-0.96l-0.36-0.13L701.98,581.36z M803.72,582.95c1.16,0.09,2.35,0.12,3.51,0.08l0.13,3.75
		c-0.41,0.01-0.81,0.02-1.22,0.02c-0.9,0-1.81-0.04-2.71-0.11L803.72,582.95z M794.65,580.8c1.08,0.44,2.19,0.82,3.32,1.13l-1,3.61
		c-1.26-0.35-2.52-0.78-3.73-1.27L794.65,580.8z M786.67,576.02c0.9,0.74,1.85,1.45,2.82,2.08l-2.05,3.14
		c-1.09-0.71-2.16-1.5-3.17-2.34L786.67,576.02z M780.48,569.04c0.29,0.44,0.59,0.89,0.91,1.33c0.36,0.5,0.75,1.01,1.16,1.5
		l-2.89,2.38c-0.46-0.56-0.9-1.13-1.3-1.69c-0.35-0.48-0.69-0.98-1.02-1.48L780.48,569.04z M777.8,563.86l-3.48,1.4
		c-0.49-1.21-0.91-2.47-1.25-3.74l3.62-0.98C776.99,561.67,777.36,562.78,777.8,563.86z M771.97,555.06
		c-0.06-0.83-0.09-1.67-0.09-2.51v-1.35h3.75v1.35c0,0.74,0.03,1.5,0.08,2.24L771.97,555.06z M775.63,422.16v3.72h-3.75v-3.72
		H775.63z M771.88,415.96v-3.72h3.75v3.72H771.88z M775.63,432.09v3.72h-3.75v-3.72H775.63z M775.63,442.01v3.72h-3.75v-3.72H775.63
		z M775.63,451.94v3.72h-3.75v-3.72H775.63z M775.63,461.87v3.72h-3.75v-3.72H775.63z M775.63,471.79v3.72h-3.75v-3.72H775.63z
		 M775.63,481.72v3.72h-3.75v-3.72H775.63z M775.63,491.65v3.72h-3.75v-3.72H775.63z M775.63,501.57v3.72h-3.75v-3.72H775.63z
		 M775.63,511.5v3.72h-3.75v-3.72H775.63z M775.63,521.43v3.72h-3.75v-3.72H775.63z M775.63,531.35v3.72h-3.75v-3.72H775.63z
		 M775.63,541.28V545h-3.75v-3.72H775.63z M775.63,403.46v2.57h-3.75v-2.57c0-0.37,0-0.75-0.01-1.12l3.75-0.07
		C775.62,402.67,775.63,403.06,775.63,403.46z M775.18,395.9l-3.72,0.44c-0.14-1.19-0.32-2.39-0.53-3.57l3.69-0.66
		C774.84,393.36,775.03,394.63,775.18,395.9z M773.17,385.88l-3.6,1.03c-0.33-1.15-0.7-2.3-1.1-3.44l3.53-1.25
		C772.43,383.43,772.82,384.66,773.17,385.88z M767.83,372.9c0.61,1.12,1.2,2.27,1.74,3.42l-3.39,1.6
		c-0.51-1.08-1.06-2.16-1.64-3.22L767.83,372.9z M762.21,364.37c0.78,1.01,1.55,2.05,2.27,3.09l-3.09,2.12
		c-0.68-0.99-1.39-1.97-2.13-2.91L762.21,364.37z M766.96,389.29c0.12,0.45,0.24,0.91,0.34,1.37c0.09,0.41,0.19,0.81,0.27,1.22
		c0.1,0.47,0.19,0.95,0.27,1.42c0.05,0.28,0.1,0.56,0.14,0.85c0.05,0.27,0.09,0.56,0.14,0.83c0.13,0.87,0.24,1.76,0.33,2.64
		c0.2,1.93,0.3,3.88,0.3,5.83v9.65h-19.37v-9.65c0-0.41-0.01-0.81-0.03-1.21c0-0.24-0.01-0.47-0.03-0.71
		c-0.01-0.29-0.03-0.57-0.05-0.85c-0.01-0.09-0.01-0.19-0.02-0.27c-0.03-0.26-0.05-0.51-0.08-0.77c-0.04-0.36-0.07-0.71-0.12-1.06
		c-0.03-0.24-0.06-0.47-0.1-0.72c-0.01-0.06-0.01-0.12-0.02-0.17c-0.14-0.88-0.31-1.76-0.5-2.62c-0.01-0.06-0.03-0.12-0.04-0.18
		c-0.09-0.4-0.19-0.8-0.31-1.2c-0.04-0.14-0.07-0.27-0.11-0.41c-0.03-0.11-0.06-0.22-0.09-0.33c-0.03-0.09-0.06-0.19-0.09-0.29
		c-0.04-0.13-0.08-0.26-0.12-0.39c-0.08-0.24-0.15-0.47-0.23-0.7c-0.07-0.22-0.16-0.45-0.24-0.67c-0.04-0.11-0.08-0.22-0.11-0.32
		c-0.05-0.12-0.09-0.24-0.14-0.37c-0.09-0.23-0.17-0.46-0.27-0.69c-0.04-0.11-0.08-0.22-0.13-0.32c-0.06-0.15-0.12-0.3-0.19-0.45
		c-0.07-0.15-0.13-0.3-0.2-0.44c-0.01-0.03-0.02-0.05-0.03-0.07c-0.02-0.05-0.04-0.1-0.07-0.15c-0.02-0.04-0.04-0.09-0.06-0.13
		c-0.04-0.09-0.08-0.18-0.12-0.27c-0.02-0.05-0.05-0.09-0.07-0.14c-0.05-0.1-0.1-0.21-0.15-0.31c-0.01-0.02-0.02-0.04-0.03-0.07
		c-0.11-0.22-0.22-0.45-0.34-0.67c-0.02-0.04-0.04-0.07-0.06-0.11c-0.09-0.18-0.19-0.36-0.28-0.54l-0.13-0.24
		c-0.14-0.26-0.28-0.52-0.43-0.77c-0.12-0.2-0.23-0.39-0.34-0.59c-0.08-0.12-0.14-0.24-0.22-0.36c-0.04-0.07-0.09-0.14-0.14-0.22
		c-0.01-0.03-0.03-0.04-0.04-0.07c-0.02-0.03-0.04-0.06-0.06-0.09c-0.02-0.03-0.04-0.06-0.06-0.09c-0.16-0.25-0.32-0.49-0.49-0.74
		c-0.14-0.22-0.29-0.44-0.45-0.66c-0.07-0.11-0.16-0.22-0.24-0.34c-0.06-0.08-0.12-0.16-0.17-0.24c-0.17-0.24-0.36-0.49-0.54-0.72
		c-0.24-0.32-0.49-0.63-0.75-0.94c-0.19-0.23-0.38-0.46-0.58-0.69c-0.06-0.07-0.12-0.15-0.19-0.22c-0.04-0.04-0.07-0.08-0.1-0.12
		c-0.04-0.04-0.07-0.07-0.11-0.11c-0.03-0.04-0.06-0.08-0.1-0.12c-0.01-0.02-0.03-0.03-0.04-0.04c-0.03-0.03-0.05-0.06-0.07-0.09
		l13.69-13.69l0.03-0.03C759.98,371.64,764.62,380.08,766.96,389.29z M749.39,472.93v-53.57h19.37v53.57H749.39z M768.76,479.18
		v50.03h-19.37v-50.03H768.76z M742.51,533.27v-3.76h3.75v3.76H742.51z M746.26,539.53v3.76h-3.75v-3.76H746.26z M742.51,523.26
		v-3.76h3.75v3.76H742.51z M742.51,513.25v-3.76h3.75v3.76H742.51z M742.51,503.23v-3.76h3.75v3.76H742.51z M742.51,493.22v-3.76
		h3.75v3.76H742.51z M742.51,483.2v-3.76h3.75v3.76H742.51z M742.51,473.19v-3.76h3.75v3.76H742.51z M742.51,463.17v-3.76h3.75v3.76
		H742.51z M742.51,453.16v-3.76h3.75v3.76H742.51z M742.51,443.14v-3.76h3.75v3.76H742.51z M742.51,433.13v-3.76h3.75v3.76H742.51z
		 M742.51,423.12v-3.76h3.75v3.76H742.51z M742.51,413.1v-3.76h3.75v3.76H742.51z M755.3,356.83c0.28,0.26,0.56,0.52,0.81,0.76
		c0.26,0.25,0.5,0.49,0.78,0.76c0.39,0.38,0.77,0.77,1.15,1.17l-2.71,2.59c-0.35-0.37-0.71-0.74-1.08-1.1
		c-0.27-0.27-0.51-0.5-0.74-0.73c-0.23-0.22-0.48-0.45-0.74-0.7L755.3,356.83z M747.29,350.5c1.06,0.71,2.11,1.46,3.12,2.23
		l-2.27,2.99c-0.95-0.72-1.94-1.43-2.94-2.09L747.29,350.5z M738.36,345.54c1.16,0.53,2.32,1.1,3.44,1.69l-1.76,3.31
		c-1.05-0.56-2.14-1.09-3.24-1.59L738.36,345.54z M728.75,342.06c1.23,0.33,2.46,0.71,3.67,1.12l-1.2,3.55
		c-1.14-0.38-2.3-0.74-3.45-1.05L728.75,342.06z M718.71,340.19c1.27,0.13,2.55,0.31,3.8,0.51l-0.62,3.7
		c-1.18-0.2-2.38-0.36-3.58-0.48L718.71,340.19z M712.01,339.84l0.32,0l-0.02,3.75l-0.3,0c-1.11,0-2.22,0.03-3.31,0.09l-0.2-3.74
		C709.65,339.87,710.83,339.84,712.01,339.84z M702.14,340.6l0.58,3.7c-1.18,0.18-2.38,0.41-3.55,0.66l-0.8-3.66
		C699.62,341.03,700.89,340.79,702.14,340.6z M692.21,342.98l1.17,3.56c-1.13,0.37-2.27,0.79-3.39,1.23l-1.38-3.48
		C689.79,343.82,691,343.38,692.21,342.98z M682.29,347.2c0.16-0.09,0.33-0.17,0.5-0.26l1.73,3.33c-0.15,0.08-0.31,0.16-0.46,0.24
		c-0.91,0.48-1.81,0.99-2.69,1.52l-1.92-3.22C680.37,348.25,681.33,347.71,682.29,347.2z M674.12,352.35l2.23,3.01
		c-0.97,0.72-1.92,1.47-2.83,2.24l-2.41-2.87C672.08,353.91,673.09,353.11,674.12,352.35z M666.42,359.07l2.68,2.62
		c-0.84,0.86-1.66,1.75-2.44,2.66l-2.84-2.45C664.66,360.94,665.53,359.99,666.42,359.07z M659.9,366.94l3.07,2.15
		c-0.69,0.98-1.35,1.99-1.98,3.02l-3.19-1.96C658.46,369.06,659.17,367.98,659.9,366.94z M654.73,375.75l3.37,1.63
		c-0.52,1.08-1.02,2.18-1.47,3.29l-3.47-1.43C653.65,378.07,654.17,376.89,654.73,375.75z M674.64,511.98v40.57
		c0,0.15,0,0.29,0.01,0.44l-19.2,4c-0.05-0.59-0.09-1.19-0.11-1.79c-0.01-0.29-0.03-0.59-0.03-0.89c-0.01-0.17-0.01-0.34-0.01-0.51
		c-0.01-0.41-0.02-0.83-0.02-1.24v-40.57H674.64z M655.27,505.73v-47.39h19.37v47.39H655.27z M674.64,403.46v48.64h-19.37v-48.64
		c0-0.47,0.01-0.93,0.02-1.39h19.38C674.65,402.53,674.64,402.99,674.64,403.46z M651.03,385.27l3.59,1.07
		c-0.34,1.15-0.65,2.32-0.92,3.49l-3.65-0.85C650.34,387.74,650.67,386.49,651.03,385.27z M648.81,396.17
		c0.03-0.3,0.07-0.6,0.11-0.9l3.72,0.47c-0.04,0.28-0.07,0.57-0.1,0.85c-0.1,0.9-0.19,1.83-0.25,2.74l-3.74-0.26
		C648.61,398.1,648.7,397.12,648.81,396.17z M648.4,405.41h3.75v3.72h-3.75V405.41z M648.4,415.34h3.75v3.72h-3.75V415.34z
		 M648.4,425.26h3.75v3.72h-3.75V425.26z M648.4,435.19h3.75v3.72h-3.75V435.19z M648.4,445.11h3.75v3.72h-3.75V445.11z
		 M648.4,455.04h3.75v3.72h-3.75V455.04z M648.4,464.97h3.75v3.72h-3.75V464.97z M648.4,474.89h3.75v3.72h-3.75V474.89z
		 M648.4,484.82h3.75v3.72h-3.75V484.82z M648.4,494.75h3.75v3.72h-3.75V494.75z M648.4,504.67h3.75v3.72h-3.75V504.67z
		 M648.4,514.6h3.75v3.72h-3.75V514.6z M648.4,524.53h3.75v3.72h-3.75V524.53z M648.4,534.45h3.75v3.72h-3.75V534.45z M648.4,544.38
		h3.75v3.72h-3.75V544.38z M648.42,554.36l3.75-0.1c0.03,1.2,0.1,2.41,0.21,3.6l-3.73,0.33
		C648.53,556.92,648.46,555.63,648.42,554.36z M649.55,564.62l-0.02-0.1l3.68-0.71l0.01,0.07c0.23,1.18,0.48,2.33,0.77,3.46
		l-3.63,0.92C650.05,567.06,649.78,565.83,649.55,564.62z M652.24,574.37l3.52-1.29c0.41,1.12,0.86,2.25,1.34,3.35l-3.44,1.49
		C653.15,576.76,652.68,575.56,652.24,574.37z M658.48,586.94c-0.69-1.07-1.35-2.18-1.98-3.29l3.27-1.83
		c0.58,1.04,1.21,2.08,1.86,3.09L658.48,586.94z M664.67,595.06c-0.85-0.95-1.68-1.93-2.48-2.93l2.94-2.33
		c0.74,0.93,1.53,1.86,2.33,2.76L664.67,595.06z M672.09,602.09c-0.99-0.8-1.97-1.64-2.91-2.5l2.52-2.77
		c0.89,0.81,1.81,1.6,2.74,2.35L672.09,602.09z M680.53,607.84c-1.1-0.63-2.2-1.3-3.27-2l2.05-3.14c1.01,0.66,2.04,1.29,3.08,1.88
		L680.53,607.84z M689.78,612.17c-1.19-0.45-2.39-0.93-3.55-1.45l1.52-3.43c1.09,0.49,2.22,0.95,3.34,1.37L689.78,612.17z
		 M693.69,576.93c0.73,0.55,1.49,1.07,2.27,1.55c0.23,0.14,0.45,0.28,0.68,0.41l-1.89,3.24c-0.26-0.15-0.51-0.3-0.77-0.46
		c-0.87-0.54-1.72-1.12-2.54-1.74L693.69,576.93z M691.39,583.7c0.36,0.24,0.72,0.47,1.09,0.69c0.24,0.15,0.49,0.3,0.74,0.45
		c0.35,0.2,0.71,0.4,1.06,0.59l-6.4,18.46c-0.98-0.46-1.94-0.94-2.89-1.46c-0.09-0.06-0.19-0.11-0.29-0.16
		c-0.42-0.22-0.84-0.46-1.26-0.71c-0.48-0.27-0.96-0.56-1.42-0.86c-0.44-0.26-0.87-0.54-1.29-0.83c-0.05-0.03-0.09-0.06-0.14-0.09
		c-0.44-0.29-0.89-0.6-1.32-0.91c-0.03-0.01-0.05-0.03-0.08-0.05c-0.43-0.3-0.86-0.61-1.27-0.93c-0.4-0.3-0.8-0.61-1.19-0.92
		c-0.11-0.08-0.21-0.17-0.31-0.26c-0.27-0.22-0.54-0.44-0.81-0.67c-0.19-0.15-0.37-0.31-0.55-0.46c-1.08-0.93-2.12-1.9-3.14-2.91
		c-0.32-0.31-0.63-0.64-0.94-0.96c-0.01-0.01-0.01-0.01-0.02-0.02c-0.27-0.28-0.54-0.57-0.8-0.86c-0.42-0.46-0.84-0.92-1.23-1.39
		c-0.53-0.61-1.04-1.23-1.53-1.86c-0.29-0.36-0.56-0.72-0.83-1.08c-0.26-0.34-0.5-0.67-0.74-1.02c-0.59-0.81-1.14-1.64-1.68-2.49
		c-0.21-0.32-0.41-0.65-0.61-0.98c-0.29-0.48-0.58-0.97-0.86-1.47c-0.18-0.31-0.36-0.63-0.53-0.95c-0.22-0.41-0.43-0.81-0.64-1.22
		c-0.22-0.42-0.42-0.84-0.63-1.27c-0.16-0.32-0.31-0.66-0.46-0.99c-0.22-0.49-0.44-0.99-0.66-1.49c-0.12-0.27-0.23-0.55-0.34-0.83
		c-0.07-0.17-0.14-0.34-0.21-0.52c-0.11-0.27-0.21-0.55-0.31-0.82c-0.03-0.08-0.06-0.15-0.09-0.22c-0.09-0.24-0.17-0.47-0.26-0.72
		c-0.57-1.62-1.08-3.27-1.51-4.95c-0.09-0.34-0.17-0.69-0.26-1.04c-0.17-0.76-0.34-1.52-0.49-2.3l18.97-3.95
		c0.07,0.37,0.14,0.74,0.22,1.11c0.07,0.33,0.14,0.66,0.22,0.99c0.08,0.35,0.17,0.69,0.27,1.04c0.09,0.34,0.19,0.68,0.29,1.02
		c0.1,0.34,0.21,0.68,0.32,1.01c0.36,1.07,0.77,2.13,1.22,3.16c0.09,0.2,0.17,0.39,0.27,0.59c0.24,0.54,0.51,1.06,0.77,1.58
		c0.1,0.2,0.21,0.39,0.31,0.59c0.14,0.27,0.29,0.53,0.44,0.79c0.17,0.29,0.34,0.58,0.52,0.87c0.19,0.32,0.4,0.64,0.61,0.96
		c0.16,0.26,0.34,0.51,0.51,0.76c0.02,0.02,0.04,0.05,0.06,0.08c0.14,0.21,0.29,0.42,0.45,0.63c0.13,0.19,0.27,0.37,0.41,0.56
		c0.15,0.21,0.31,0.41,0.47,0.61c0.18,0.24,0.37,0.47,0.56,0.7c0.2,0.24,0.41,0.49,0.61,0.72c0.18,0.21,0.37,0.42,0.56,0.63
		c0.2,0.22,0.41,0.44,0.61,0.66c0.17,0.19,0.35,0.37,0.54,0.55c1.64,1.66,3.44,3.16,5.36,4.48
		C691.04,583.47,691.22,583.59,691.39,583.7z M682.72,394.94c-0.15,0.52-0.29,1.04-0.41,1.56l-3.65-0.85
		c0.14-0.59,0.29-1.18,0.46-1.76c0.2-0.69,0.42-1.38,0.67-2.05l3.52,1.28C683.1,393.72,682.9,394.34,682.72,394.94z M684.21,565.08
		l-3.42,1.54c-0.54-1.2-1.02-2.45-1.42-3.71l3.57-1.14C683.3,562.9,683.72,564.01,684.21,565.08z M681.53,402.34
		c-0.01,0.42-0.02,0.81-0.02,1.12v2.57h-3.75v-2.57c0-0.34,0-0.77,0.02-1.24L681.53,402.34z M681.52,412.29v3.76h-3.75v-3.76H681.52
		z M681.52,422.31v3.76h-3.75v-3.76H681.52z M681.52,432.32v3.76h-3.75v-3.76H681.52z M681.52,442.33v3.76h-3.75v-3.76H681.52z
		 M681.52,452.35v3.76h-3.75v-3.76H681.52z M681.52,462.36v3.76h-3.75v-3.76H681.52z M681.52,472.38v3.76h-3.75v-3.76H681.52z
		 M681.52,482.39v3.76h-3.75v-3.76H681.52z M681.52,492.41v3.76h-3.75v-3.76H681.52z M681.52,502.42v3.76h-3.75v-3.76H681.52z
		 M681.52,512.44v3.76h-3.75v-3.76H681.52z M681.52,522.45v3.76h-3.75v-3.76H681.52z M681.52,532.46v3.76h-3.75v-3.76H681.52z
		 M681.52,542.48v3.76h-3.75v-3.76H681.52z M681.52,552.49v0.06c0,1.17,0.07,2.34,0.19,3.47l-3.72,0.42
		c-0.15-1.28-0.22-2.59-0.22-3.9v-0.06H681.52z M687.14,570.19c0.68,0.96,1.43,1.89,2.21,2.76l-2.79,2.51
		c-0.88-0.98-1.72-2.02-2.48-3.1L687.14,570.19z M685.85,387.81l-3.21-1.93c0.68-1.13,1.43-2.23,2.24-3.28l2.97,2.29
		C687.13,385.82,686.46,386.8,685.85,387.81z M684.97,377.69c-0.21,0.21-0.41,0.43-0.61,0.66c-0.19,0.21-0.37,0.41-0.56,0.62
		c-0.03,0.04-0.06,0.07-0.09,0.11c-0.17,0.21-0.36,0.41-0.52,0.62c-0.19,0.23-0.38,0.46-0.56,0.7c-0.19,0.24-0.37,0.47-0.55,0.71
		c-0.54,0.72-1.06,1.46-1.54,2.22c-0.14,0.21-0.27,0.43-0.41,0.65c-0.18,0.29-0.36,0.59-0.53,0.89c-0.14,0.26-0.29,0.51-0.42,0.76
		c-0.19,0.34-0.37,0.69-0.55,1.04c-0.09,0.19-0.19,0.38-0.28,0.57c-0.12,0.25-0.23,0.49-0.34,0.74c-0.14,0.31-0.28,0.62-0.41,0.93
		c-0.24,0.56-0.46,1.12-0.67,1.7c-0.08,0.19-0.14,0.39-0.21,0.59c-0.07,0.19-0.14,0.39-0.2,0.59c-0.11,0.32-0.21,0.66-0.31,0.99
		c-0.08,0.27-0.16,0.54-0.23,0.81c-0.11,0.41-0.22,0.82-0.32,1.24c-0.07,0.3-0.14,0.6-0.2,0.91c-0.01,0.02-0.01,0.04-0.01,0.06
		h-19.64c0.06-0.52,0.14-1.04,0.23-1.55c0.02-0.12,0.04-0.25,0.06-0.37c0.03-0.22,0.07-0.44,0.11-0.65
		c0.06-0.28,0.11-0.56,0.16-0.84c0.05-0.28,0.11-0.56,0.17-0.84c0.11-0.56,0.24-1.12,0.39-1.67c0.13-0.56,0.28-1.11,0.43-1.66
		c0.07-0.27,0.15-0.55,0.24-0.82c0.16-0.54,0.33-1.09,0.51-1.62c0.08-0.24,0.16-0.48,0.24-0.72c0.11-0.29,0.21-0.59,0.32-0.89
		c0.09-0.27,0.19-0.53,0.29-0.79c0.09-0.26,0.2-0.52,0.31-0.79c0.34-0.86,0.7-1.71,1.08-2.54c0.14-0.31,0.29-0.62,0.43-0.93
		c1.15-2.41,2.47-4.73,3.93-6.94c0.3-0.46,0.61-0.9,0.92-1.34c0.32-0.46,0.64-0.91,0.98-1.35c0.28-0.37,0.56-0.74,0.86-1.11
		c0.16-0.21,0.33-0.42,0.51-0.63c0.19-0.24,0.38-0.47,0.58-0.7c0.07-0.09,0.14-0.17,0.22-0.26c0.29-0.36,0.6-0.71,0.91-1.05
		c0.05-0.06,0.09-0.11,0.15-0.16c0.22-0.26,0.45-0.51,0.69-0.76c0.93-1.01,1.9-1.97,2.9-2.9c0.27-0.26,0.56-0.51,0.84-0.76
		c0.14-0.13,0.29-0.26,0.44-0.39c0.34-0.3,0.69-0.6,1.04-0.89c0.41-0.34,0.84-0.69,1.26-1.02c0.01,0,0.02-0.01,0.03-0.02
		c0.44-0.34,0.87-0.67,1.32-1.01c0.44-0.33,0.89-0.65,1.34-0.96c0.01-0.01,0.02-0.02,0.03-0.02c0.36-0.26,0.72-0.51,1.09-0.74
		c0.17-0.11,0.34-0.22,0.52-0.34c0.39-0.25,0.78-0.5,1.17-0.74c0.47-0.29,0.96-0.58,1.44-0.85c0.44-0.26,0.89-0.51,1.35-0.74
		c0.04-0.02,0.08-0.05,0.12-0.07l8.88,17.21c-0.92,0.5-1.82,1.04-2.7,1.62c-0.22,0.14-0.45,0.29-0.67,0.45
		c-0.49,0.33-0.96,0.67-1.43,1.03c-0.17,0.13-0.35,0.26-0.52,0.4C687.54,375.18,686.21,376.39,684.97,377.69z M691.87,380.58
		l-2.48-2.81c0.99-0.88,2.04-1.7,3.12-2.45l2.14,3.08C693.69,379.07,692.75,379.8,691.87,380.58z M699.78,375.52l-1.51-3.43
		c1.22-0.54,2.47-1,3.72-1.39l1.1,3.58C701.98,374.62,700.87,375.04,699.78,375.52z M712.4,372.96l-0.39,0
		c-1.05,0-2.11,0.05-3.15,0.16l-0.38-3.73c1.17-0.12,2.35-0.18,3.53-0.18l0.44,0L712.4,372.96z M721.66,374.52
		c-1.11-0.37-2.26-0.68-3.41-0.92l0.76-3.67c1.29,0.27,2.58,0.62,3.84,1.03L721.66,374.52z M730,378.83l-0.17-0.12
		c-0.9-0.65-1.84-1.25-2.79-1.8l1.85-3.26c1.07,0.61,2.12,1.29,3.14,2.01l0.2,0.15L730,378.83z M734.05,373.29
		c-0.08-0.06-0.14-0.11-0.21-0.16c-0.21-0.15-0.42-0.3-0.63-0.44c-0.16-0.11-0.31-0.22-0.47-0.32c-0.04-0.03-0.09-0.06-0.14-0.09
		c-0.26-0.17-0.52-0.34-0.78-0.5c-0.31-0.19-0.61-0.38-0.92-0.56c-0.23-0.14-0.46-0.27-0.7-0.4c-0.09-0.06-0.19-0.11-0.29-0.16
		c-0.04-0.02-0.09-0.05-0.13-0.07c-0.03-0.01-0.05-0.02-0.07-0.04c-0.24-0.13-0.47-0.26-0.71-0.37c-0.08-0.04-0.15-0.07-0.22-0.11
		c-0.06-0.03-0.11-0.06-0.16-0.08c-0.03-0.02-0.07-0.03-0.1-0.04c-0.18-0.09-0.36-0.18-0.54-0.26c-0.03-0.02-0.07-0.04-0.1-0.05
		c-0.01-0.01-0.03-0.01-0.04-0.01c-0.03-0.01-0.04-0.03-0.07-0.04c-0.02-0.01-0.06-0.03-0.08-0.04c-0.24-0.11-0.47-0.22-0.71-0.32
		c-0.04-0.03-0.09-0.04-0.14-0.06c-0.09-0.04-0.17-0.08-0.26-0.11c-0.5-0.22-1.01-0.42-1.52-0.61c-0.21-0.08-0.42-0.16-0.64-0.23
		c-0.02-0.01-0.04-0.01-0.06-0.02c-0.02-0.01-0.04-0.02-0.07-0.02c-0.01,0-0.01,0-0.01,0c-0.39-0.14-0.77-0.27-1.16-0.39
		c-0.73-0.23-1.47-0.43-2.22-0.61c-0.01-0.01-0.01-0.01-0.01-0.01c-0.75-0.18-1.51-0.34-2.27-0.47c-0.31-0.06-0.61-0.11-0.92-0.16
		c-0.31-0.05-0.62-0.09-0.93-0.13c-0.55-0.07-1.11-0.13-1.67-0.17c-0.19-0.01-0.37-0.03-0.57-0.04c-0.19-0.02-0.4-0.03-0.6-0.04
		c-0.32-0.02-0.64-0.03-0.96-0.04c-0.32-0.01-0.64-0.01-0.96-0.01c-0.32,0-0.64,0.01-0.96,0.01c-0.3,0.01-0.6,0.02-0.9,0.04
		c-0.16,0.01-0.32,0.01-0.48,0.03c-0.26,0.01-0.51,0.03-0.77,0.06c-0.91,0.07-1.8,0.18-2.68,0.32c-0.27,0.04-0.54,0.09-0.81,0.14
		c-0.29,0.05-0.57,0.1-0.85,0.16c-0.08,0.01-0.16,0.03-0.24,0.05c-0.39,0.08-0.79,0.17-1.17,0.27c-0.32,0.07-0.65,0.16-0.97,0.25
		c-0.72,0.19-1.43,0.41-2.13,0.65c-0.01,0.01-0.01,0.01-0.01,0.01l-8.95-17.35c1.24-0.49,2.5-0.94,3.78-1.35
		c0.25-0.08,0.51-0.16,0.76-0.23c0.23-0.07,0.45-0.14,0.67-0.2c0.37-0.11,0.74-0.21,1.12-0.31c0.27-0.07,0.55-0.14,0.82-0.21
		c0.3-0.07,0.59-0.15,0.89-0.22c0.06-0.01,0.11-0.02,0.16-0.04c0.41-0.09,0.81-0.18,1.22-0.26c0.06-0.01,0.11-0.03,0.17-0.04
		c0.33-0.07,0.66-0.13,0.99-0.19c0.19-0.04,0.38-0.07,0.57-0.11c0.26-0.05,0.51-0.09,0.77-0.12c0.63-0.11,1.27-0.2,1.9-0.27
		c0.34-0.04,0.69-0.09,1.04-0.12c0.12-0.02,0.25-0.03,0.37-0.04c0.37-0.04,0.74-0.07,1.11-0.1c0.09-0.01,0.18-0.02,0.27-0.02
		c0.26-0.02,0.52-0.04,0.79-0.05c0.26-0.02,0.51-0.03,0.77-0.04c0.91-0.04,1.83-0.07,2.76-0.07c0.49,0,0.97,0.01,1.46,0.02h0.05
		c0.44,0.01,0.89,0.03,1.33,0.06c0.06,0,0.13,0,0.19,0.01c0.44,0.02,0.89,0.05,1.33,0.09c0.42,0.03,0.84,0.06,1.26,0.11
		c0.11,0.01,0.22,0.01,0.32,0.03c0.32,0.03,0.64,0.06,0.95,0.11c0.23,0.02,0.46,0.05,0.7,0.09c0.82,0.11,1.63,0.23,2.44,0.38
		c0.01,0,0.03,0,0.04,0.01c1.38,0.24,2.74,0.54,4.09,0.89c8.34,2.13,16.1,6.15,22.73,11.84l-0.02,0.02l-13.75,13.75
		c-0.05-0.04-0.09-0.07-0.14-0.1c0.04,0.02,0.08,0.06,0.11,0.09c-0.15-0.12-0.31-0.24-0.46-0.36c-0.1-0.08-0.2-0.16-0.3-0.23
		C734.26,373.43,734.16,373.36,734.05,373.29z M736.64,385.49c-0.51-0.7-1.06-1.39-1.64-2.04c-0.21-0.24-0.41-0.47-0.61-0.69
		l2.76-2.53c0.24,0.26,0.47,0.52,0.69,0.78c0.63,0.72,1.25,1.5,1.83,2.28L736.64,385.49z M739.64,390.56l3.4-1.59
		c0.56,1.19,1.05,2.44,1.47,3.69l-3.56,1.18C740.58,392.73,740.14,391.62,739.64,390.56z M742.26,399.58l3.72-0.48
		c0.17,1.31,0.26,2.64,0.28,3.96l-3.75,0.04C742.49,401.93,742.41,400.75,742.26,399.58z M742.51,553.33c0-0.26,0-0.51,0-0.77v-3.01
		h3.75v3.01c0,0.24,0,0.48,0,0.72L742.51,553.33z M742.91,559.76l3.73-0.42c0.14,1.21,0.31,2.42,0.52,3.6l-3.69,0.65
		C743.24,562.33,743.05,561.04,742.91,559.76z M745.77,572.71c-0.31-0.93-0.61-1.89-0.88-2.84l3.61-1.02
		c0.25,0.9,0.53,1.79,0.82,2.67c0.09,0.27,0.18,0.54,0.28,0.8l-3.54,1.24C745.96,573.28,745.86,573,745.77,572.71z M750.24,582.98
		c-0.62-1.13-1.2-2.29-1.75-3.45l3.39-1.59c0.51,1.09,1.07,2.19,1.65,3.25L750.24,582.98z M755.89,591.59l-0.05-0.06
		c-0.3-0.39-0.58-0.75-0.85-1.12c-0.47-0.63-0.93-1.28-1.38-1.93l3.09-2.12c0.42,0.61,0.85,1.22,1.29,1.81
		c0.26,0.36,0.53,0.7,0.79,1.04l0.07,0.09L755.89,591.59z M758.41,583.29c-5.88-9.08-9.03-19.66-9.03-30.74v-17.1h19.37v17.1
		c0,7.79,2.4,15.03,6.49,21.02l-14.84,8.57L758.41,583.29z M762.86,599.2c-0.54-0.5-1.07-1.01-1.6-1.53
		c-0.39-0.39-0.78-0.78-1.16-1.19l2.71-2.59c0.36,0.38,0.72,0.75,1.09,1.11c0.49,0.49,1,0.97,1.5,1.44L762.86,599.2z M770.96,605.57
		c-0.83-0.55-1.66-1.13-2.46-1.72c-0.23-0.17-0.46-0.34-0.69-0.51l2.25-3c0.22,0.16,0.44,0.33,0.66,0.49
		c0.76,0.56,1.54,1.1,2.32,1.62L770.96,605.57z M779.98,610.57c-1.17-0.53-2.34-1.1-3.48-1.7l1.75-3.32c1.07,0.56,2.17,1.1,3.27,1.6
		L779.98,610.57z M789.69,614.03c-1.24-0.33-2.49-0.7-3.71-1.11l1.19-3.56c1.15,0.38,2.32,0.73,3.48,1.04L789.69,614.03z
		 M799.83,615.86c-1.28-0.12-2.57-0.29-3.84-0.49l0.59-3.7c1.19,0.19,2.41,0.35,3.61,0.46L799.83,615.86z M806.27,616.17l-0.01-3.75
		c1.21,0,2.43-0.04,3.64-0.12l0.24,3.74C808.85,616.12,807.55,616.16,806.27,616.17z M806.13,609.29c-11.96,0-23.36-3.68-32.91-10.5
		c-2.5-1.79-4.87-3.79-7.1-6c-1.42-1.41-2.76-2.89-4.01-4.42l17.13-9.89c1.16,1.2,2.39,2.32,3.7,3.36
		c6.37,5.06,14.43,8.09,23.18,8.09c1.29,0,2.56-0.07,3.84-0.19l1.59,19.31C809.77,609.21,807.95,609.29,806.13,609.29z
		 M829.99,571.52l1.31-1.64l2.81,2.81l-1.25,1.25c-0.38,0.48-0.79,0.96-1.21,1.43l-0.11-0.1l-0.07,0.07l-1.32-1.32l-1.28-1.15
		C829.24,572.43,829.63,571.97,829.99,571.52z M824.55,576.84l2.27,2.98c-1.04,0.79-2.14,1.54-3.26,2.2l-1.92-3.22
		C822.65,578.2,823.62,577.54,824.55,576.84z M813.85,585.91l-0.85-3.65c0.37-0.09,0.73-0.18,1.09-0.28
		c0.78-0.21,1.54-0.45,2.21-0.69l0.08-0.03l0.61,1.77l0.59,1.78c-0.77,0.28-1.64,0.55-2.52,0.79
		C814.67,585.72,814.26,585.82,813.85,585.91z M818,615.05c-0.48,0.09-0.97,0.18-1.46,0.26l-0.61-3.7c0.46-0.08,0.92-0.16,1.37-0.24
		c0.73-0.14,1.47-0.29,2.2-0.46l0.83,3.66C819.56,614.74,818.77,614.91,818,615.05z M826.54,612.82l-1.2-3.55
		c1.15-0.39,2.29-0.82,3.41-1.27l1.42,3.47C828.98,611.95,827.76,612.4,826.54,612.82z M817.76,608.11l-1.62-19.56
		c2.36-0.64,4.66-1.53,6.83-2.64c3.14-1.59,6.04-3.63,8.61-6.02l13.72,13.72c-4.17,3.97-8.88,7.27-14.02,9.82
		C826.95,605.57,822.42,607.14,817.76,608.11z M836,608.72l-1.76-3.31c1.07-0.57,2.13-1.18,3.16-1.81l1.96,3.2
		C838.26,607.47,837.13,608.12,836,608.72z M844.68,603.16l-2.27-2.98c0.96-0.73,1.91-1.51,2.83-2.29l2.45,2.84
		C846.71,601.56,845.7,602.38,844.68,603.16z M852.4,596.21l-2.73-2.57c0.01-0.01,0.02-0.03,0.04-0.04l-0.06-0.06l2.65-2.65
		l2.57,2.57l-1.17,1.32C853.28,595.27,852.84,595.74,852.4,596.21z"/>
</g>
</svg>
